<?xml version="1.0" standalone="no"?>
<!DOCTYPE svg PUBLIC "-//W3C//DTD SVG 1.1//EN" "http://www.w3.org/Graphics/SVG/1.1/DTD/svg11.dtd" >
<svg xmlns="http://www.w3.org/2000/svg">
<metadata>Generated by IcoMoon</metadata>
<defs>
<font id="icomoon" horiz-adv-x="1024">
<font-face units-per-em="1024" ascent="896" descent="-128" />
<missing-glyph horiz-adv-x="1024" />
<glyph unicode="&#x20;" d="" />
<glyph unicode="&#x78;" glyph-name="x" horiz-adv-x="1001" d="M281 543q-27-1-53-1h-83q-18 0-36.5-6t-32.5-18.5-23-32-9-45.5v-76h912v41q0 16-0.5 30t-0.5 18q0 13-5 29t-17 29.5-31.5 22.5-49.5 9h-133v-97h-438v97zM955 310v-52q0-23 0.5-52t0.5-58-10.5-47.5-26-30-33-16-31.5-4.5q-14-1-29.5-0.5t-29.5 0.5h-32l-45 128h-439l-44-128h-63q-20 0-45 1-25 0-41 9.5t-25.5 23-13.5 29.5-4 30v167h911zM163 247q-12 0-21-8.5t-9-21.5 9-21.5 21-8.5q13 0 22 8.5t9 21.5-9 21.5-22 8.5zM316 123q-8-26-14-48-5-19-10.5-37t-7.5-25-3-15 1-14.5 9.5-10.5 21.5-4h365q23 0 34 12t2 38q-5 13-9.5 30.5t-9.5 34.5q-5 19-11 39h-368zM336 498v228q0 11 2.5 23t10 21.5 20.5 15.5 34 6h188q31 0 51.5-14.5t20.5-52.5v-227h-327z" />
<glyph unicode="&#x79;" glyph-name="x2" horiz-adv-x="1001" d="M281 543q-27-1-53-1h-83q-18 0-36.5-6t-32.5-18.5-23-32-9-45.5v-76h912v41q0 16-0.5 30t-0.5 18q0 13-5 29t-17 29.5-31.5 22.5-49.5 9h-133v-97h-438v97zM955 310v-52q0-23 0.5-52t0.5-58-10.5-47.5-26-30-33-16-31.5-4.5q-14-1-29.5-0.5t-29.5 0.5h-32l-45 128h-439l-44-128h-63q-20 0-45 1-25 0-41 9.5t-25.5 23-13.5 29.5-4 30v167h911zM163 247q-12 0-21-8.5t-9-21.5 9-21.5 21-8.5q13 0 22 8.5t9 21.5-9 21.5-22 8.5zM316 123q-8-26-14-48-5-19-10.5-37t-7.5-25-3-15 1-14.5 9.5-10.5 21.5-4h365q23 0 34 12t2 38q-5 13-9.5 30.5t-9.5 34.5q-5 19-11 39h-368zM336 498v228q0 11 2.5 23t10 21.5 20.5 15.5 34 6h188q31 0 51.5-14.5t20.5-52.5v-227h-327z" />
<glyph unicode="&#xe600;" glyph-name="rectangle390" horiz-adv-x="1025" d="M933.875 216.231v415.398c0 89.578-72.64 162.247-162.247 162.247h-519.257c-89.578 0-162.247-72.64-162.247-162.247v-519.257c0-89.578 72.64-162.247 162.247-162.247h519.257c79.833 0 146.234 57.694 159.739 133.674-43.010 18.503-229.54 99.030-326.659 145.483-73.909-89.539-151.342-143.264-268.058-143.264s-194.602 71.798-185.212 159.831c6.163 57.78 45.78 152.112 217.775 135.887 90.651-8.552 132.162-25.462 206.163-49.822 19.016 35.045 34.979 73.643 46.962 114.726h-327.761v32.452h162.143v58.413h-197.819v35.697h197.819v84.151c0 0 1.864 13.205 16.339 13.205h81.13v-97.356h210.937v-35.697h-210.938v-58.413h171.995c-15.769-64.437-39.718-123.547-69.793-175.278 50.030-18.048 277.485-87.583 277.485-87.583s0 0 0 0zM323.779 141.593c-123.318 0-142.788 77.885-136.298 110.337s42.188 74.64 110.743 74.64c78.833 0 149.316-20.114 234.033-61.377-59.424-77.44-132.575-123.6-208.477-123.6z" />
<glyph unicode="&#xe601;" glyph-name="rectangle3902" horiz-adv-x="1025" d="M933.875 216.231v415.398c0 89.578-72.64 162.247-162.247 162.247h-519.257c-89.578 0-162.247-72.64-162.247-162.247v-519.257c0-89.578 72.64-162.247 162.247-162.247h519.257c79.833 0 146.234 57.694 159.739 133.674-43.010 18.503-229.54 99.030-326.659 145.483-73.909-89.539-151.342-143.264-268.058-143.264s-194.602 71.798-185.212 159.831c6.163 57.78 45.78 152.112 217.775 135.887 90.651-8.552 132.162-25.462 206.163-49.822 19.016 35.045 34.979 73.643 46.962 114.726h-327.761v32.452h162.143v58.413h-197.819v35.697h197.819v84.151c0 0 1.864 13.205 16.339 13.205h81.13v-97.356h210.937v-35.697h-210.938v-58.413h171.995c-15.769-64.437-39.718-123.547-69.793-175.278 50.030-18.048 277.485-87.583 277.485-87.583s0 0 0 0zM323.779 141.593c-123.318 0-142.788 77.885-136.298 110.337s42.188 74.64 110.743 74.64c78.833 0 149.316-20.114 234.033-61.377-59.424-77.44-132.575-123.6-208.477-123.6z" />
<glyph unicode="&#xe602;" glyph-name="icon" d="M511.979-107.056c-300.633 0-426.734 107.535-426.734 328.527 0 183.079 142.992 374.138 316.335 434.413h220.799c173.35-60.275 316.335-251.333 316.335-434.413-0.001-220.992-126.102-328.527-426.737-328.527zM630.242 256.086v0.073c19.951 0.105 36.089 16.314 36.089 36.281 0 19.987-16.137 36.177-36.089 36.303v0.086h-73.195c0.143 0.816-0.097 1.542-0.025 2.359l85.783 87.691c13.993 15.764 6.873 28.799-7.269 43.092-14.231 14.365-37.489 17.378-48.989 4.859l-73.762-78.629-79.675 79.676c-10.082 10.073-29.696 6.791-43.81-7.324-14.126-14.134-17.397-33.764-7.324-43.837l81.486-81.467c-1.525-1.95-2.512-4.115-3.104-6.42h-66.225v-0.068c-0.062 0-0.126 0-0.186 0-20.057 0-36.319-16.245-36.319-36.319 0-20.037 16.262-36.316 36.319-36.316 0.061 0 0.124 0.036 0.186 0.036v-0.073h72.591v-36.175h-72.591v-0.106c-0.062 0-0.126 0-0.186 0-20.057 0-36.319-16.245-36.319-36.317 0-20.039 16.262-36.319 36.319-36.319 0.061 0 0.124 0.036 0.186 0.036v-0.036h72.591v-36.566h0.753c-0.569-2.836-0.895-5.798-0.895-8.83 0-25.075 20.322-45.398 45.396-45.398 25.076 0 45.398 20.323 45.398 45.398 0 3.031-0.33 5.994-0.896 8.83h0.425v36.566l73.338 0.036c19.951 0.125 36.089 16.315 36.089 36.284 0 19.984-16.137 36.175-36.089 36.299v0.125h-73.338v36.174h73.337zM684.487 800.89l-7.632-9.54c-0.169-0.177-0.286-0.39-0.454-0.567l-64.548-80.686h-217.906l-64.426 80.545c-0.479 0.462-0.789 1.028-1.232 1.525l-6.978 8.724 1.231 2.466c-0.593 2.235-1.383 4.416-1.383 6.828 0 11.562 7.271 21.331 17.45 25.305l0.861 1.721c0 0 89.262 17.857 163.43 18.159 77.62 0.319 163.431-18.159 163.431-18.159l0.88-1.738c10.115-4.009 17.324-13.762 17.324-25.287 0-2.377-0.781-4.487-1.347-6.667l1.3-2.627z" />
<glyph unicode="&#xe603;" glyph-name="zhuanzhang" d="M954.014 373.305c-31.51-0.303-185.995 88.917-190.874 93.568-11.734 11.188-7.3 25.115 4.673 27.020s79.203 9.898 79.203 9.898c-41.318 110.437-133.518 198.636-254.527 227.223-193.138 45.643-392.87-83.827-437.013-281.424-0.38-1.685-3.047-21.83-19.045-21.191-10.83 0.432-46.309 14.539-59.136 20.556-14.644 6.868-18.601 5.094-14.16 27.201 50.235 251.201 307.497 420.497 554.419 362.572 204.919-48.063 347.27-225.878 362.91-428.477 2.619-27.151-11.203-36.797-26.451-36.944zM631.498 318.246c20.284 0 36.729-16.427 36.729-36.727 0-20.265-16.445-36.729-36.729-36.729h-73.456v-45.909c0-25.359-20.551-45.911-45.911-45.911-25.358 0-45.91 20.551-45.91 45.911v45.909h-73.456c-20.284 0-36.727 16.465-36.727 36.729 0 20.302 16.444 36.727 36.727 36.727h73.456v36.73h-73.456c-20.284 0-36.727 16.461-36.727 36.726 0 20.3 16.444 36.729 36.727 36.729h73.456v2.512l-81.508 81.491c-14.445 14.455-14.445 37.875 0 52.313s37.858 14.437 52.304 0l74.497-74.478 74.786 74.784c14.444 14.419 37.859 14.419 52.303 0 14.446-14.454 14.446-37.877 0-52.313l-80.558-80.559v-3.749h73.456c20.284 0 36.729-16.429 36.729-36.729 0-20.267-16.445-36.726-36.729-36.726h-73.456v-36.73h73.456zM263.027 266.418c16.112-10.302 12.229-30.994-5.477-32.836s-73.153-6.725-73.153-6.725c43.956-103.014 133.043-184.236 248.233-211.442 193.137-45.623 390.651 77.582 434.806 275.179 0.906 4.054 0.877 3.418 2.457 12.122s4.139 21.945 21.142 16.052 58.475-18.085 71.394-21.539 11.465-8.548 9.846-20.553c-0.493-3.651-1.238-6.994-2.017-10.509-57.81-256.921-309.451-417.196-562.049-357.924-204.677 48.010-346.947 225.429-362.865 427.724-2.159 34.762 22.4 41.857 47.505 28.577 19.75-10.447 154.064-87.822 170.176-98.124z" />
<glyph unicode="&#xe604;" glyph-name="xinyongqiahuankuan" d="M869.659 6.611h-712.339c-50.434 0-91.325 40.882-91.325 91.324v347.038h894.988v-347.038c0.001-50.442-40.89-91.324-91.324-91.324zM632.211 244.058l-36.53-127.857h219.181l36.53 127.857h-219.181zM65.996 664.153c0 50.434 40.891 91.325 91.325 91.325h712.338c50.434 0 91.325-40.891 91.325-91.325v-91.327h-894.988v91.327z" />
<glyph unicode="&#xe605;" glyph-name="dangmianfu" d="M512.121 831.498c-246.926 0-447.806-200.868-447.806-447.793 0-231.793 173.784-423.416 404.257-445.706 1.768-0.185 3.524-0.264 5.269-0.264 27.517 0 51.060 20.915 53.767 48.883 2.88 29.736-18.895 56.171-48.631 59.051-174.723 16.901-306.49 162.229-306.49 338.036 0 187.267 152.351 339.62 339.633 339.62 187.265 0 339.605-152.353 339.605-339.62 0-54.298-12.412-106.138-36.905-154.097-13.586-26.594-3.037-59.184 23.569-72.759 26.608-13.598 59.184-3.037 72.772 23.558 32.339 63.33 48.736 131.729 48.736 203.298 0.001 246.925-200.865 447.793-447.776 447.793zM724.448 308.043c24.191-3.433 46.31 13.203 49.783 37.209 1.833 12.703 2.758 25.644 2.758 38.478 0 147.469-119.989 267.445-267.471 267.445-147.508 0-267.51-119.975-267.51-267.445 0-111.762 70.432-212.698 175.263-251.202 4.992-1.821 10.116-2.693 15.147-2.693 17.891 0 34.716 11.011 41.25 28.81 8.371 22.767-3.314 48.013-26.107 56.384-70.378 25.857-117.664 93.647-117.664 168.701 0 99.008 80.574 179.555 179.621 179.555 99.022 0 179.581-80.546 179.581-179.555 0-8.662-0.621-17.35-1.861-25.907-3.473-24.005 13.192-46.295 37.209-49.781zM571.541 409.135c-22.026 32.299-58.668 34.94-83.559 20.495-22.565-13.073-36.906-39.984-23.082-73.312 8.862-21.313 146.015-323.484 164.914-360.748 24.624-48.541 84.984-61.533 124.885-38.583 36.617 21.072 60.373 74.79 26.873 127.423-33.487 52.633-196.007 304.207-210.032 324.725z" />
<glyph unicode="&#xe606;" glyph-name="shuidianmei" d="M511.803 832.502c0 0-387.271-306.337-387.271-514.854s173.387-377.555 387.271-377.555c213.877 0 387.272 169.038 387.272 377.555s-387.272 514.854-387.272 514.854zM478.127 108.473l33.676 168.38h-168.378l218.892 269.407-33.675-168.38h168.378l-218.893-269.407z" />
<glyph unicode="&#xe607;" glyph-name="shoujichongzhi" d="M772.839 832.056h-521.853c-51.463 0-93.188-41.726-93.188-93.188v-708.231c0-51.47 41.726-93.187 93.188-93.187h521.854c51.453 0 93.188 41.718 93.188 93.187v708.231c0 51.462-41.736 93.188-93.189 93.188zM456 776.142h111.824c10.294 0 18.638-8.345 18.638-18.637s-8.344-18.637-18.638-18.637h-111.824c-10.294 0-18.637 8.345-18.637 18.637s8.343 18.637 18.637 18.637zM511.913-6.638c-30.879 0-55.912 25.036-55.912 55.912 0 30.878 25.033 55.915 55.912 55.915 30.888 0 55.912-25.037 55.912-55.915 0-30.876-25.025-55.912-55.912-55.912zM754.201 179.739h-484.577v503.215h484.577v-503.215z" />
<glyph unicode="&#xe608;" glyph-name="qinmifu" d="M747.145 781.202c-122.588 10.042-216.137-50.372-270.169-129.398-26.242 65.615-112.652 103.916-186.956 103.263-110.748-0.957-237.29-82.199-246.245-233.769-11.909-201.485 131.506-248.882 215.338-380.368 48.147-75.552 74.83-178.208 74.83-178.208s66.034 23.979 161.996 68.064c-64.005 41.796-111.263 100.788-124.231 176.737-20.946 122.529 39.536 238.223 151.033 263.613 14.789 3.373 42.669 2.934 58.389 1.83 31.95-2.241 53.876-11.174 82.543-25.565 29.31 37.415 70.222 64.299 116.638 74.877 15.011 3.405 29.040 5.354 44.519 5.354 58.092-0.013 113.079-24.061 151.73-62.748 2.322 11.908 4.093 23.921 4.747 36.166 8.107 152.619-89.931 268.337-234.162 280.151zM826.239 468.093c-10.926 0-21.935-1.19-32.829-3.686-53.895-12.268-94.176-53.588-110.108-105.173-28.937 31.861-69.255 50.989-111.882 50.989-10.522 0-21.202-1.166-31.886-3.615-81.978-18.659-126.26-110.891-111.191-199.084 32.269-188.89 415.356-225.955 415.356-225.955s-32.946 31.7 18.881 112.964c57.556 90.247 132.164 122.063 114.062 245.899-11.209 76.777-79.108 127.661-150.403 127.661z" />
<glyph unicode="&#xe609;" glyph-name="gupiao" d="M891.014-35.275l-751.154-0.017c-17.975 0.017-34.445 16.537-34.486 34.487v212.937c0 34.589 17.37 52.689 35.606 35.348l101.585-79.955c13.648-11.687 34.159-27.584 45.575-13.724l116.429 141.367c11.418 13.859 32.013 33.427 45.77 21.858l100.187-87.228c13.751-11.553 42.225-31.726 53.415-17.666l249.285 300.427c33.671 38.437 71.223 29.419 71.223-17.673 0-35.093 0-495.69 0-495.69-0.001-17.95-15.469-34.487-33.436-34.47zM598.671 333.696c-9.228-11.821-22.852-19.364-37.754-20.931-14.929-1.769-29.807 3.013-41.266 12.646l-113.010 95.177-113.506-149.821c-9.069-11.939-22.574-19.718-37.46-21.489-2.163-0.251-4.337-0.386-6.509-0.386-12.654 0-25.015 4.38-34.917 12.496l-99.058 81.049c-23.584 19.282-27.061 54.054-7.772 77.639 19.274 23.617 54.038 27.069 77.614 7.772l54.761-44.794 113.987 150.478c9.142 12.075 22.817 19.838 37.839 21.521 15.13 1.65 30.093-2.913 41.662-12.612l113.625-95.709 146.807 184.141-40.912 33.983c-29.030 24.106-22.582 50.224 14.331 58.028l212.767 45.004c36.906 7.805 48.322-10.305 25.37-40.263l-306.597-393.925z" />
<glyph unicode="&#xe60a;" glyph-name="youxichongzhi" d="M742.678-70.858h-458.868c-136.844 0-247.78 124.638-247.78 278.374 0 153.755 110.937 278.374 247.78 278.374h458.868c136.847 0 247.78-124.62 247.78-278.374 0-153.737-110.933-278.374-247.78-278.374zM361.748 247.285h-51.763v60.602c0 20.229-15.827 36.61-35.349 36.61-19.52 0-35.35-16.381-35.35-36.61v-60.602h-60.596c-20.222 0-36.612-15.827-36.612-35.35 0-19.52 16.391-35.349 36.612-35.349h60.596v-51.764c0-20.212 15.829-36.608 35.35-36.608 19.523 0 35.349 16.396 35.349 36.608v51.764h51.763c20.222 0 36.611 15.829 36.611 35.349 0 19.523-16.389 35.35-36.611 35.35zM645.803 247.285c-19.52 0-35.35-15.827-35.35-35.35 0-19.52 15.83-35.349 35.35-35.349 19.523 0 35.35 15.829 35.35 35.349 0 19.523-15.827 35.35-35.35 35.35zM743.012 344.497c-19.519 0-35.348-15.829-35.348-35.349 0-19.524 15.829-35.35 35.348-35.35 19.522 0 35.35 15.826 35.35 35.35 0 19.52-15.828 35.349-35.35 35.349zM743.012 150.074c-19.519 0-35.348-15.827-35.348-35.349s15.829-35.348 35.348-35.348c19.522 0 35.35 15.826 35.35 35.348s-15.828 35.349-35.35 35.349zM840.225 247.285c-19.523 0-35.35-15.827-35.35-35.35 0-19.52 15.827-35.349 35.35-35.349 19.521 0 35.349 15.829 35.349 35.349 0 19.523-15.828 35.35-35.349 35.35zM550.775 539.054c-35.746 0-81.718-0.043-81.718-0.043s0 3.099 0 54.758c0 197.407 209.964 41.996 209.964 171.481 0 30.965 0 47.621 0 47.621l81.666-0.094c0 0 0-3.857 0-54.758 0.001-236.779-224.324-17.243-209.911-218.965z" />
<glyph unicode="&#xe60b;" glyph-name="shoukuan" d="M946.405 314.964l-356.407-312.272c-21.728-17.534-49.298-28.077-79.348-28.077-29.805 0-57.153 10.4-78.799 27.663l-356.294 311.874c-7.775 8.936-12.644 20.48-12.644 33.279 0 23.309 15.746 42.753 37.086 48.747 0 0 5.127 1.987 12.6 1.987s104.987 0 104.987 0v325.39c0 46.8 35.208 81.406 81.868 81.406h422.39c46.66 0 81.868-34.606 81.868-81.406v-325.389h102.986c0.34 0 0.658 0.098 1.001 0.098 0.341 0 0.66-0.098 1.002-0.098h1.183l0.057-0.127c26.925-1.209 48.446-23.307 48.446-50.608-0.001-12.419-4.612-23.645-11.981-32.467zM624.617 454.912c18.658 0 29.647 14.482 29.647 33.196s-10.988 31.93-29.647 31.93l-71.857 0.019 74.243 74.613c13.292 13.324 13.292 34.933 0 48.264-13.285 13.332-34.836 13.332-48.121 0l-68.806-69.013-68.534 68.743c-13.293 13.332-34.836 13.332-48.122 0-13.293-13.332-13.293-34.941 0-48.263l74.151-74.386-70.89 0.024c-18.659 0-29.647-13.216-29.647-31.93s10.988-33.196 29.647-33.196h73.265v-40.703h-73.265c-18.659 0-29.647-12.12-29.647-30.849 0-18.714 10.988-34.276 29.647-34.276h73.265v-48.842c0-23.389 17.371-40.703 40.704-40.703 23.325 0 40.702 17.314 40.702 40.703v48.842h75.36c18.658 0 27.553 12.491 27.553 31.206 0 24.348-12.987 33.919-31.646 33.919h-71.267v40.703h73.265z" />
<glyph unicode="&#xe60c;" glyph-name="jipiao" d="M888.808 604.246c-0.438-0.435-0.916-0.793-1.36-1.219l0.063-0.063-164.123-145.796 117.249-452.436-0.112-0.063c2.869-9.289 0.726-19.774-6.66-27.12-10.651-10.595-27.906-10.595-38.549 0-0.501 0.494-0.851 1.068-1.306 1.578-0.518 0.446-1.091 0.813-1.584 1.307-0.478 0.46-0.821 1.019-1.26 1.513l-0.191-0.080-246.327 316.518-137.753-122.379-0.378 0.049-32.184-145.177-0.059-0.017c-0.319-6.484-2.877-12.872-7.855-17.844-10.652-10.58-27.906-10.58-38.553 0-3.198 3.186-5.318 6.993-6.593 11.011l-0.055-0.017-49.312 120.497-122.333 49.328c-0.405 0.144-0.804 0.302-1.202 0.478l-0.434 0.177 0.007 0.047c-2.896 1.306-5.639 3.075-8.022 5.434-10.646 10.595-10.646 27.77 0 38.349 4.984 4.956 11.416 7.504 17.937 7.824l0.011 0.063 146.222 32.072 123.166 137.179-316.25 242.786 0.116 0.259c-0.683 0.558-1.407 1.027-2.045 1.662-10.646 10.591-10.646 27.758 0 38.349 6.405 6.369 15.192 8.831 23.5 7.54l0.004 0.004 0.040-0.008c1.33-0.211 2.629-0.566 3.923-0.972l450.729-111.376 146.093 162.587c0.431 0.443 0.795 0.913 1.226 1.351 44.157 44.599 127.048 57.695 169.628 15.335 42.588-42.361 28.92-124.131-15.416-168.73zM812.213 750.077c-33.161 0-60.854-23.306-67.688-54.421l94.575-78.843c24.941 10.499 42.451 35.167 42.451 63.926 0.001 38.294-31.043 69.338-69.338 69.338z" />
<glyph unicode="&#xe60d;" glyph-name="huilvhuansuan" d="M827.055 361.722h-240.265v-108.855h115.908v21.81c0 50.76 21.791 45.551 54.428 16.433l121.25-94.958c10.4-8.398 12.973-20.024 12.973-24.318s-2.574-14.624-12.973-22.411l-121.25-88.065c-32.636-27.010-54.428-35.276-54.428 15.238v22.057h-115.908v-95.873c0-37.082-34.7-67.415-77.107-67.415-42.413 0-77.106 30.334-77.106 67.415v95.873h-231.196c-37.487 0-68.16 34.699-68.16 77.107s30.674 77.107 68.16 77.107h231.196v108.854h-115.616c-0.098 0.054-0.201 0.133-0.297 0.187v-21.997c0-50.76-21.792-45.551-54.424-16.432l-121.251 94.956c-10.396 8.394-12.773 17.339-12.773 24.191s2.378 14.756 12.773 22.539l121.251 88.069c32.631 27.007 54.424 35.27 54.424-15.241v-22.072c0.096 0 0.199 0.013 0.297 0.013h105.661l-189.050 198.982c-27.781 29.77-25.521 75.449 5.014 101.521 30.541 26.066 78.257 23.045 106.039-6.72l165.057-176.843 165.055 176.843c27.78 29.764 75.503 32.786 106.039 6.72 30.535-26.072 32.795-71.752 5.014-101.521l-189.056-198.981h230.319c37.491 0 68.159-34.695 68.159-77.107 0.001-42.406-30.668-77.107-68.158-77.107z" />
<glyph unicode="&#xe60e;" glyph-name="taobao" d="M129.307 535.271l-53.662-82.848 99.451-61.857c0 0 66.156-33.941 34.733-97.375-29.822-60.178-174.474-191.803-174.474-191.803l129.817-80.938c89.543 194.575 83.882 168.57 106.487 238.569 23.117 71.425 28.014 125.873-11.169 165.162-50.56 50.736-56.031 55.392-131.182 111.091zM462.95 640.229c20.519 35.675 30.433 58.906 30.433 58.906l-119.742 33.587c0 0-48.294-157.554-134.423-231.062 0 0 83.302-48.066 82.34-46.667 23.98 23.868 45.315 48.143 64.080 71.73 19.033 8.321 37.519 16.182 55.481 23.509-22.085-39.87-57.949-99.588-93.734-137.247l50.442-44.123c0 0 34.348 32.978 71.922 72.851h42.837v-73.484h-167.073v-58.804h167.072v-140.988c-2.103 0.103-4.215 0.103-6.286 0.23-18.463 0.94-47.178 4.019-58.383 21.65-13.679 21.58-3.676 61.245-2.98 85.47h-115.070l-4.251-2.112c0 0-42.022-189.054 121.867-184.829 153.457-4.147 241.418 42.673 283.607 75.139l16.788-62.569 94.659 39.26-63.932 156.921-76.945-23.921 14.43-53.788c-19.833-14.655-42.633-25.699-66.961-33.814v123.353h162.926v58.804h-162.927v73.484h163.585v58.829h-290.679c20.914 25.418 37.406 48.775 41.756 63.687l-50.546 13.714c217.207 77.759 338.308 64.4 337.151-63.051v-336.099c0 0 13.006-115.568-119.358-107.147l-71.402 15.37-16.794-67.889c0 0 308.77-88.214 333.999 149.21 25.229 237.371-6.295 388.614-6.295 388.614s-27.899 219.102-507.594 83.278zM200.289 566.213c47.173 0 85.441 37.962 85.441 84.806 0 46.791-38.269 84.807-85.441 84.807-47.177 0-85.434-38.016-85.434-84.807 0-46.845 38.256-84.806 85.434-84.806z" />
<glyph unicode="&#xe60f;" glyph-name="jizhang" d="M741.939 788.246h-415.984c-131.539 0-157.866-30.505-157.985-155.152 4.099 0.146 4.099-0.608 4.099-0.608h-3.466c-34.467 0-44.053-28.16-44.053-62.877 0-34.724 9.586-62.874 44.053-62.874l-0.231 1.043v-87.646l0.231 5.419c-34.467 0-44.053-28.151-44.053-62.867 0-34.733 9.586-62.877 44.053-62.877l-0.231 6.385v-96.411l0.231 8.834c-34.467 0-44.053-28.144-44.053-62.858 0-34.733 2.26-70.631 36.728-70.631 0 0 0 0 6.445 0.068 0.933-109.403 25.781-129.585 158.233-129.585h415.984c115.763 0 153.895 27.271 153.895 136.519v541.113c0 132.162-34.573 155.007-153.895 155.007zM676.716 323.722c22.632 0 34.427-12.154 35.478-35.059 1.053-22.938-10.835-37.147-38.995-37.043-16.098 0.034-92.892 1.985-92.892 1.985v-78.881c0-22.923-21.73-26.91-44.509-26.91-22.774 0-43.138 3.987-43.138 26.91v78.881h-96.409c-22.586 0-35.059 12.137-35.059 35.059 0 15.236-0.298 5.153-0.205 6.283 1.739 21.329 13.781 28.776 35.264 28.776h96.41v52.588h-96.41c-16.597 0-32.969 3.989-32.969 41.88 0 22.929 13.943 37 36.728 37h73.452l-50.122 46.383-23.419 23.588c-15.185 15.296-15.526 39.304-2.038 55.61 0.805 0.976 1.139 2.191 2.038 3.115 16.109 16.212 42.197 16.212 58.305 0l3.074-3.115 75.003-75.527 78.069 78.642c16.108 16.212 42.188 16.212 58.287 0 16.1-16.21 16.1-42.522 0-58.725l-70.648-69.971h73.456c22.775 0 36.727-14.071 36.727-37 0-22.93-12.702-41.88-35.478-41.88h-96.41v-52.588h96.41z" />
<glyph unicode="&#xe610;" glyph-name="lvyoutehui" d="M991.086 510.784c-0.463 11.417-10.183 17.677-21.328 20.295-1.598 0.376-892.551 203.044-906.965 204.392-18.615 1.741-29.492-12.307-28.848-28.191 0.171-4.353 2.558-10.134 4.444-13.769l290.604-643.501c7.185-10.012 22.83-18.789 34.968-13.423 22.409 9.907 218.655 159.181 228.969 161.99 5.368 1.462 139.944-74.626 147.377-74.609 12.164 0.035 22.003 9.892 21.98 22.031-0.010 1.045 20.785 196.775 20.785 196.775s202.458 154.921 204.595 156.903 3.565 7.438 3.42 11.107zM689.724 239.637l-561.744 424.961c0 0 542.177-276.771 555.537-284.397s12.528-11.252 12.773-21.379-6.566-119.184-6.566-119.184z" />
<glyph unicode="&#xe611;" glyph-name="caipiao" d="M188.145 412.243c10.643 2.752 78.255 31.968 88.911 34.745-28.467 31.683-49.629 73.169-76.067 133.693-35.121-8.707-95.946-26.832-95.946-26.832s78.786-133.367 83.103-141.606zM579.15 298.692l72.484-81.97c124.202 41.922 289.47 207.382 289.47 207.382l-83.032 84.746c0 0-81.023-125.413-278.922-210.158zM429.878 460.205l67.010-35.222c62.95 62.908 115.166 162.375 115.166 162.375l-104.46 39.034c0 0-40.914-113.175-77.716-166.187zM661.412 429.892c104.928 51.824 246.786 228.761 246.786 228.761l-82.004 77.251c0 0-118.646-174.896-231.178-233.63l66.396-72.383zM612.054 172.392l-191.867 101.29h188.429v111.345h-196.993v51.389h-128.474v-51.389h-214.124v-111.345h162.733c-48.332-65.44-72.827-93.027-162.634-148.381l65.81-97.241c81.268 59.954 112.821 97.509 148.215 142.843v-196.994h128.474v196.994l140.528-82.069 59.903 83.558zM877.986 293.941c0 0-89.454-160.007-356.384-233.294l38.994-86.737c265.514 64.771 376.364 205.609 399.183 228.109l-81.793 91.923zM314.862 465.908c0 0 81.249-0.553 94.511 0-9.317 49.382-11.479 70.895-18.903 132.455l-113.854-18.233c15.679-37.814 30.735-65.977 38.246-114.221zM603.699 674.026l-32.444 113.553c0 0-78.148-70.293-484.343-78.122l4.956-93.779c482.080-9.753 511.831 58.348 511.831 58.348z" />
<glyph unicode="&#xe612;" glyph-name="aa" d="M405.046 694.986c-8.047 31.311-36.017 54.535-69.593 54.535-33.579 0-61.545-23.226-69.591-54.535 0 0-216.033-628.704-226.156-657.858s9.575-33.007 26.835-33.007l0.013-0.016h50.442l0.172 0.154c0.256-0.017 0.47-0.154 0.729-0.154 13.877 0 19.801 9.101 26.451 24.253s67.218 159.908 67.218 159.908h254.319l62.115-167.118c0.077-0.189 0.111-0.359 0.188-0.548 4.119-9.61 13.548-16.324 24.561-16.443l0.077-0.051h51.814l0.067 0.085c14.738 0.239 29.725 17.065 24.267 33.803-2.852 8.748-223.929 656.992-223.929 656.992zM229.104 275.963l101.429 315.706 109.041-315.706h-210.47zM989.906 36.538c-4.731 18.921-225.581 658.448-225.581 658.448-8.094 31.311-36.244 54.535-70.028 54.535-33.786 0-61.935-23.226-70.029-54.535l-79.458-224.79 54.245-160.371 95.231 278.855 104.844-312.717h-184.163l26.31-78.927h184.161l62.621-175.89c0.077-0.189 0.112-0.359 0.189-0.548 4.146-9.61 13.633-16.324 24.724-16.443l0.077-0.051h52.138l0.068 0.085c14.833 0.24 29.38 13.428 24.65 32.349z" />
<glyph unicode="&#xe613;" glyph-name="kuaidi" d="M962.289 44.587h-73.422c-8.889 71.183-69.5 126.297-143.088 126.297s-134.199-55.114-143.089-126.297h-55.376c-29.892 0-54.129 24.243-54.129 54.126v487.149c0 29.9 24.236 54.127 54.129 54.127h414.976c29.891 0 54.128-24.227 54.128-54.127v-487.149c0-29.883-24.236-54.126-54.128-54.126zM402.974 44.587h-37.327c-8.898 71.183-69.509 126.297-143.098 126.297-73.591 0-134.194-55.114-143.092-126.297h-37.332c-19.926 0-36.084 16.157-36.084 36.086 0 0 0 87.973 0 198.467 0 72.099 123.421 252.594 180.423 252.594 110.501 0 216.51 0 216.51 0 19.929 0 36.084-16.157 36.084-36.084v-414.976c0.001-19.931-16.157-36.087-36.083-36.087zM330.804 441.521c0 0-56.876 2.625-125.135 0-29.125-1.11-109.418-107.374-109.418-162.382 0-14.079 0-17.392 0-18.043h234.553v180.425zM222.548 116.756c49.82 0 90.212-40.384 90.212-90.212 0-49.81-40.393-90.211-90.212-90.211-49.824 0-90.212 40.403-90.212 90.211 0 49.828 40.389 90.212 90.212 90.212zM750.29 116.756c52.311 0 94.723-42.411 94.723-94.724s-42.412-94.721-94.723-94.721c-52.313 0-94.723 42.411-94.723 94.721 0 52.314 42.412 94.724 94.723 94.724z" />
<glyph unicode="&#xe614;" glyph-name="guojihuikuan" d="M989.692 296.253c-0.033 2.349-0.506 4.57-1.386 6.656-0.033 0.043-0.033 0.11-0.066 0.22-0.801 1.799-1.901 3.405-3.263 4.811-0.186 0.263-0.363 0.527-0.593 0.769-1.386 1.341-2.977 2.394-4.723 3.229-0.318 0.154-0.58 0.352-0.966 0.506-2.11 0.879-4.459 1.341-6.898 1.317l-145.505-14.301c-9.775-0.111-17.618-8.129-17.519-17.903 0.089-9.798 8.128-17.618 17.894-17.531l67.506 0.593c-0.121-0.132-0.242-0.262-0.363-0.373 1.549 0.176 2.834 0.35 4.283 0.505-48.757-51.557-112.133-97.185-186.672-130.862-221.943-100.329-458.132-57.051-527.595 96.659-69.468 153.687 54.096 359.636 276.005 459.943 4.37 1.978 8.766 3.525 13.138 5.382-2.022-0.373-4.065-0.614-6.186-0.614 18.277 0 33.073 14.805 33.073 33.072 0 18.256-14.796 33.073-33.073 33.073-4.866 0-9.446-1.121-13.62-3.008-22.122-7.525-44.244-16.147-66.222-26.077-265.802-120.165-411.69-371.501-325.893-561.305 85.795-189.892 370.83-246.349 636.666-126.206 101.227 45.738 184.969 110.521 245.25 183.674 0.022 0 0.022 0.022 0.034 0.022 0.098-19.707-0.079-66.804-0.11-79.151 0.624-9.292 8.226-16.63 17.627-16.521 9.799 0.11 17.63 8.106 17.531 17.903l10.171 129.26 0.516 0.747-0.449-0.019 1.406 15.532zM713.115 363.123c-8.302 15.551-20.298 28.534-35.204 38.222-14.455 9.404-31.393 16.609-50.735 21.991-14.442 3.997-30.412 7.689-47.209 11.226v109.049c3.943-0.638 7.821-1.406 11.456-2.505 8.987-2.724 16.39-6.37 22.495-10.785l-0.033 0.021c6.076-4.438 10.611-9.425 14.126-15.333 3.108-5.382 4.615-10.852 4.645-17.598 0-4.612 1.857-9.117 5.13-12.367 3.251-3.275 7.745-5.141 12.357-5.141h43.838c4.81 0 9.457 2.020 12.752 5.514 3.274 3.493 5.010 8.261 4.713 13.051-1.043 17.266-5.546 33.479-13.763 47.735-8.039 14.082-19.233 26.053-32.919 35.434-13.585 9.315-29.238 16.147-46.615 20.672-12.102 3.164-24.956 4.767-38.18 5.712v16.146c0 4.612-1.857 9.094-5.13 12.369-3.262 3.25-7.765 5.117-12.367 5.117h-31.020c-4.624 0-9.105-1.867-12.368-5.117-3.274-3.275-5.14-7.756-5.14-12.369v-15.949c-13.434-0.857-26.592-2.526-39.069-5.953-17.85-4.922-34.006-12.237-48.144-22.034-14.245-9.82-25.91-22.1-34.434-36.467-8.853-14.849-13.268-31.833-13.225-49.559-0.011-19.134 4.009-36.666 13.017-51.383 8.38-13.796 20.066-25.35 34.258-34.291 13.741-8.677 29.524-15.509 47.254-20.694 12.62-3.712 25.977-6.941 39.683-9.886v-125.062c-6.338 1.23-15.948 2.899-21.486 5.118-10.983 4.349-20.121 9.863-27.699 16.454-7.513 6.59-13.006 13.818-16.905 22.054-3.811 8.195-5.733 16.784-5.745 26.538 0 4.614-1.868 9.117-5.131 12.367-3.251 3.275-7.743 5.141-12.368 5.141h-43.837c-4.932 0-9.687-2.13-12.993-5.798-3.307-3.669-4.911-8.612-4.395-13.532 0.451-4.286 0.89-8.525 1.351-12.851 0.516-4.855 1.274-9.82 2.23-14.849l0.286-1.252c8.918-33.611 28.69-60.719 57.457-77.81 24.11-14.478 56.81-22.693 89.892-26.053v-15.597c0-4.592 1.867-9.118 5.14-12.368 3.263-3.275 7.744-5.141 12.368-5.141h31.020c4.602 0 9.105 1.89 12.367 5.141 3.239 3.251 5.13 7.776 5.13 12.368v15.42c13.223 1.231 26.439 3.186 39.577 6.678 19.002 5.009 36.301 12.259 51.657 21.838 15.542 9.686 28.535 21.792 38.489 36.137 10.589 15.159 16.026 33.105 15.959 51.977-0.011 22.276-3.789 41.871-12.532 58.261zM513.282 447.524c-4.427 1.164-8.843 2.327-13.017 3.557-9.763 2.834-17.913 6.436-24.67 10.633l-0.033 0.044c-6.183 3.845-10.51 8.261-13.785 13.643-2.69 4.481-4.57 10.94-4.57 20.409 0.033 7.205 1.594 12.983 4.756 18.541 3.407 5.91 8.029 10.985 14.487 15.554 6.581 4.679 14.389 8.414 23.77 11.116 4.175 1.23 8.545 2.109 13.060 2.768v-96.263zM641.696 288.124c-4.128-7.163-9.689-13.313-17.254-18.783-7.777-5.58-16.983-10.149-27.834-13.598-5.328-1.669-10.875-2.944-16.641-3.799v113.552c6.338-1.34 12.413-2.768 18.212-4.282 11.050-2.857 20.254-6.657 27.811-11.182 7.008-4.241 12.082-9.248 16.026-15.598l-0.022 0.045c3.296-5.36 5.482-12.874 5.505-23.726-0.034-8.679-1.922-15.796-5.801-22.628z" />
<glyph unicode="&#xe615;" glyph-name="aixinjuanzeng" d="M912.244 653.305c-114.529 97.079-280.677 50.813-361.045-42.605-59.602 79.381-181.23 164.423-339.671 101.361-205.974-81.951-259.759-383.466 4.902-571.391 84.483-59.969 186.926-97.008 246.575-112.23 36.23-9.302 67.701-15.915 67.701-15.915s2.107 9.086 14.226 10.465c12.13 1.356 10.169 15.345 25.74 18.174 15.556 2.807 17.958 12.703 17.958 12.703s-175.165 28.38-314.753 138.613c-168.801 133.236-136.794 283.697-67.595 364.481 76.61 89.491 189.342 94.535 266.26 49.908 71.402-41.486 108.737-100.767 102.921-157.358-5.507-53.619-34.649-34.183-43.425-8.541-12.347 36.158 3.995 64.132 9.017 76.907-9.586 13.417-18.711 24.834-30.236 33.518-10.405-19.887-23.075-47.41-17.198-82.736 9.171-55.14 74.172-90.822 93.631-37.586 9.55 26.191 15.546 78.478-6.708 130.526 37.573 35.825 86.54 67.178 169.013 50.787 77.538-15.367 139.982-103.43 106.442-205.339-42.081-127.886-173.844-126.505-173.844-126.505s0.69-31.424-13.357-46.769c-23.074-25.167-4.127-41.794-14.676-54.974-10.443-13.178-2.711-49.812-2.711-49.812s110.127 17.222 214.663 93.344c121.331 88.35 180.67 316.955 46.173 430.971z" />
<glyph unicode="&#xe616;" glyph-name="diandian" d="M463.314 217.183h364.381v77.284h-55.234c215.043 228.459 28.206 318.64-242.922 276.037v44.173c108.962 29.253 253.982 22.12 253.982 22.12v88.347c0 0-143.58-4.842-253.982-44.174v77.287h-132.487v-220.867c-137.265-20.615-233.857 9.489-233.857 9.489s0.131-329.696 300.119-329.696zM636.211 344.398c-158.436-183.694-314.843 10.276-328.194 68.716 183.827-38.546 627.2 278 328.194-68.716zM668.244 188.452l0.098-0.392-0.129 0.26c0 0-86.58-76.696-156.343-76.696-71.005 0-120.805 90.048-244.033 75.844-104.545-12.105-203.199-66.881-203.199-66.881l0.72-0.982c2.028-8.9 18.585-73.946 76.699-105.232l-0.065 0.327 0.523-0.651c0 0 72.281 97.114 145.544 97.114 120.806 0 129.641-86.448 240.434-86.844 117.6-0.391 208.957 57.853 208.957 57.853l-0.262 0.459 0.392-0.132c-10.536 73.493-69.336 105.952-69.336 105.952zM877.332 184.132c-45.712 0-82.817-37.103-82.817-82.852 0-45.743 37.105-82.846 82.817-82.846s82.817 37.103 82.817 82.846c-0.001 45.75-37.106 82.852-82.817 82.852z" />
<glyph unicode="&#xe617;" glyph-name="huafeiqiazhuanrang" d="M815.547 713.715h-605.789c-63.467 0-115.387-53.737-115.387-119.417v-485.098c0-65.688 51.92-119.432 115.387-119.432h605.789c63.456 0 115.386 53.745 115.386 119.432v485.098c0 65.679-51.931 119.417-115.386 119.417zM518.895 89.623c-20.58 0-37.454 17.675-37.454 37.454 0 19.765 16.873 37.439 37.454 37.439 109.59 0 199.778 80.282 199.778 187.223 0 106.943-89.434 187.233-199.778 187.233-110.351 0-199.298-104.084-199.298-211.364h72.395c32.765 0.048 26.339-2.23-1.72-45.294-26.424-40.516-109.549-174.481-109.549-174.481-17.707-26.142-33.519-36.731-33.519-5.452v104.571c-0.054 0.786 0 7.242 0 8.044v136.746c0 146.66 120.572 266.5 271.677 266.673 151.12 0.173 274.71-119.589 274.71-266.673-0.001-147.037-123.982-262.117-274.695-262.117z" />
<glyph unicode="&#xe618;" glyph-name="aliyouxi" d="M724.371 762.9c-89.853 52.022-201.374 32.038-268.395-41.96l366.183-212.621c30.744 95.333-7.757 202.463-97.788 254.58zM612.586 577.991c1.939 0 3.841-0.125 5.773-0.146l-190.764 110.565c-0.219 0.117-0.426 0.249-0.646 0.383-105.469 61.136-240.332 24.854-301.227-81.034-52.782-91.786-32.566-205.651 42.423-274.184 93.409 146.878 257.482 244.416 444.439 244.416zM848.255 447.234l-207.199-372.955c95.928-32.858 204.725 5.582 257.328 96.937 53.739 93.32 30.302 209.82-50.129 276.018zM779.559 479.998c-195.588 96.567-432.68 32.867-553.904-148.818l-0.833-1.44c-2.131-2.879-3.944-6.080-5.953-9.077-2.762-4.408-5.798-8.535-8.424-13.060-59.018-103.706-23.481-235.836 79.763-295.607 103.575-59.947 236.006-24.369 295.805 79.468 0.126 0.221 0.235 0.442 0.361 0.647h0.007l215.808 374.784-22.63 13.103zM564.551 127.882c-48.121-83.774-154.7-112.477-238.047-64.105-83.354 48.356-111.914 155.471-63.792 239.244 6.276 10.915 20.18 14.661 31.049 8.359 10.87-6.303 14.602-20.287 8.322-31.2-35.57-61.915-14.461-141.091 47.146-176.845 61.607-35.739 140.385-14.528 175.948 47.387 6.281 10.93 20.184 14.675 31.053 8.359 10.871-6.303 14.594-20.274 8.321-31.201z" />
<glyph unicode="&#xe619;" glyph-name="shoujibaoling" d="M921.614 650.557l-25.017 21.992 21.333 24.459c14.995 13.037 16.606 35.584 3.594 50.382l-37.701 42.849c-13.015 14.806-35.716 16.228-50.721 3.205l-301.451-233.591c-105.406 49.135-234.721 34.464-328.407-47.855-126.566-111.211-140.149-303.738-30.347-430.019 109.803-126.266 301.421-138.491 427.982-27.282 105.986 93.131 132.726 243.283 74.14 363.805l48.862 56.023 30.206-26.915c10.815-9.642 27.862-7.726 38.071 4.255l29.589 34.728c10.211 11.988 9.717 29.521-1.099 39.154l-29.311 26.121 37.672 43.192 26.983-23.721c10.883-9.567 27.868-7.477 37.932 4.677l29.167 35.214c10.073 12.146 9.413 29.762-1.478 39.329zM410.12 140.873c-44.518-39.179-111.906-34.899-150.506 9.551-38.593 44.435-33.793 112.22 10.731 151.382 44.526 39.164 111.905 34.883 150.499-9.551 38.6-44.434 33.8-112.218-10.724-151.382z" />
<glyph unicode="&#xe61a;" glyph-name="tianmaobao" d="M950.962 357.008v0.569c0 1.214 0 2.444-0.034 3.733-0.694 43.493-7.257 111.863-38.035 133.033-35.331 24.198-68.11-20.317-74.548-29.071-46.263-61.974-96.545-143.872-187.296-143.872h-274.284c-90.761 0-141.030 81.897-187.314 143.872-6.438 8.754-39.211 53.269-74.53 29.071-30.791-21.169-37.332-89.539-38.049-133.033-0.017-1.29-0.017-2.519-0.017-3.733v-0.569c0-2.887 0.017-21.613 0.017-78.381h-0.103v-143.753c0-4.17 0.087-8.187 0.259-12.038 2.558-57.739 23.258-152.861 436.88-152.861 413.602 0 434.301 95.122 436.871 152.861 0.185 3.851 0.269 7.867 0.269 12.038v143.751h-0.119c-0.001 56.769 0.033 75.494 0.033 78.382zM265.931 46.346c-0.016 0-0.034 0-0.034 0-65.278 0-118.188 52.532-118.188 117.303 0 64.805 52.91 117.321 118.188 117.321 0 0 0.017 0 0.034 0-17.218-0.016-31.155-52.5-31.155-117.221 0-64.838 13.936-117.37 31.155-117.404zM265.948 46.346c17.126 0.034 31.030 52.566 31.030 117.404 0 64.704-13.903 117.186-31.030 117.221 65.239-0.035 118.107-52.551 118.107-117.321 0.001-64.754-52.867-117.27-118.107-117.303zM542.969 150.676l-10.681-18.667c-4.378-7.549-9.417-16.572-12.438-22.097-0.635-1.106-1.473-2.795-5.984-2.795-4.421 0-5.342 1.689-5.952 2.795-3.021 5.524-8.128 14.548-12.446 22.182l-10.631 18.516c-5.215 9.090-0.502 16.507 10.48 16.507h37.182c10.94 0 15.694-7.367 10.471-16.439zM761.857 46.346c-65.239 0.034-118.117 52.55-118.117 117.303 0 64.771 52.877 117.286 118.117 117.321-17.119-0.035-31.038-52.516-31.038-117.221 0-64.838 13.919-117.37 31.038-117.404zM761.924 46.346h-0.035c17.195 0.034 31.131 52.566 31.131 117.404 0 64.721-13.936 117.204-31.131 117.221h0.035c65.273 0 118.182-52.516 118.182-117.321 0.001-64.771-52.909-117.303-118.182-117.303zM377.561 612.793h272.409c10.866 0 21.001 1.172 30.535 3.314 0.15 0.034 0.293 0.076 0.434 0.118-27.059 65.038-91.774 110.925-167.492 110.925-75.435 0-139.452-45.678-166.573-110.29 4.151-1.138 8.413-2.125 12.79-2.929 5.75-0.72 11.703-1.139 17.897-1.139zM92.395 523.027c13.347 8.939 27.79 13.46 43.012 13.46 20.662 0 51.867-8.739 83.257-50.358 3.241-4.252 6.601-8.679 9.974-13.166 42.133-55.906 81.959-108.708 147.583-108.708h275.606c65.634 0 105.444 52.802 147.572 108.708 3.398 4.487 6.737 8.914 10.061 13.284 31.306 41.501 62.528 50.24 83.177 50.24 15.209 0 29.655-4.521 42.957-13.409 0.076-0.050 0.143-0.108 0.218-0.159 9.71 34.444 15.001 76.548 15.236 113.897-3.164 33.013-12.457 70.831-36.855 84.625-35.524 19.955-68.512-16.841-75.091-24.098-46.624-51.186-96.512-118.802-188.051-118.802h-274.284c-91.465 0-141.378 67.617-188.002 118.802-6.561 7.257-39.517 44.054-75.070 24.098-24.425-13.778-33.708-51.503-36.926-84.475 0.222-37.458 5.529-79.653 15.28-114.189 0.117 0.083 0.225 0.166 0.347 0.25z" />
<glyph unicode="&#xe61b;" glyph-name="qianbaopengyou" d="M332.765 337.381c-18.418-1.847-45.986-6.729-72.076-27.541 0.711 0.369 0.231-0.075 0.231-0.075-55.653-47.021-20.572-135.853 91.381-135.853 64.931 0 129.92 42.587 180.813 109.571-72.51 35.708-133.939 60.513-200.35 53.898zM524.205 814.62c-245.088 6.396-448.95-186.903-455.346-431.771-6.414-244.83 187.081-448.518 432.159-454.912 98.554-2.588 190.139 27.541 265.218 79.92l156.525-42.695-41.493 159.732c45.2 67.393 72.823 147.721 75.098 234.814 6.412 244.867-187.081 448.517-432.161 454.912zM818.563 151.585c-83.417 35.894-174.881 75.892-219.75 97.741-63.221-77.483-148.475-120.771-232.953-120.771-82.869 0-143.829 49.313-150.714 100.883 0-0.405-0.065-0.595-0.065-0.999 0 0-18.547 53.972 26.487 108.313 14.925 18.041 39.934 35.489 79.007 45.174 61.052 15.158 158.291-9.389 249.424-39.701 16.366 30.423 37.668 61.991 47.972 97.665h-306.499v38.113h153.246v38.113h-172.402v38.114h172.403v76.225h95.779v-76.225h172.403v-38.114h-172.403v-38.113c0 0 153.377-1.296 153.246 0-6.894-55.711-49.451-107.61-76.623-152.451 43.029-15.674 88.818-36.323 115.015-45.783 68.573-24.765 98.203-34.397 112.027-37.279-11.315-32.496-26.729-62.994-45.6-90.903z" />
<glyph unicode="&#xe61c;" glyph-name="dache" d="M990.277 391.758c0 27.913-34.886 50.553-77.921 50.553-13.985 0-27.076-2.414-38.416-6.595l-58.991 168.39c-13.564 22.359-15.271 46.331-36.789 46.331h-92.801l-13.252 68.048c-5.471 19.263-31.521 27.186-53.036 27.186h-212.116c-21.515 0-47.738-7.923-53.027-27.186l-13.261-68.048h-92.803c-21.515 0-27.467-26.743-36.8-46.331l-58.967-168.39c-11.35 4.182-24.462 6.595-38.437 6.595-43.034 0-77.913-22.641-77.913-50.553 0-27.91 34.879-50.551 77.913-50.551 0.352 0 0.692 0.038 1.044 0.038 0.201-1.246 0.282-2.414 0.583-3.699-3.619-63.221 31.31-268.976 37.341-299.701 7.842-34.546 20.692-40.458 42.208-40.458h79.54c21.515 0 34.105 18.138 34.105 40.458v43.877c10.124-1.044 20.681-2.012 32.182-2.694 125.52-7.562 237.061-8.485 344.694 0 11.323 0.885 21.929 1.97 32.194 3.137v-44.32c0-22.32 12.578-40.458 34.094-40.458h79.55c21.516 0 36.787 16.972 42.198 40.458 12.619 36.679 63.648 252.924 50.363 303.965 37.613 3.578 66.518 24.532 66.518 49.95zM247.863 174.263c-43.938 0-79.539 36.557-79.539 81.641s35.601 81.642 79.539 81.642c43.927 0 79.551-36.558 79.551-81.642s-35.623-81.641-79.551-81.641zM645.583 405.553c-55.236-7.522-196.782-4.745-238.628 0-41.857 4.705-137.453 16.53-137.453 16.53-21.517 0-38.961 18.137-38.961 40.458l19.497 80.879c8.101 28.433 16.085 39.010 37.604 39.010h450.745c21.527 0 29.491-10.577 37.615-39.010l19.476-80.879c0-22.321-17.444-40.458-38.961-40.458-0.002-0.001-55.684-8.971-110.934-16.53zM791.423 174.263c-43.936 0-79.55 36.557-79.55 81.641s35.613 81.642 79.55 81.642c43.918 0 79.539-36.558 79.539-81.642s-35.622-81.641-79.539-81.641z" />
<glyph unicode="&#xe61d;" glyph-name="kuaiqiang" d="M847.423 537.168c0 38.73-32.757 70.12-73.17 70.12h-59.448c-1.046 109.878-92.693 198.661-205.689 198.661-112.997 0-204.624-88.784-205.688-198.661h-53.548c-40.404 0-73.168-31.39-73.168-70.12l-48.778-502.499c0-38.694 32.765-70.103 73.168-70.103h621.931c40.412 0 73.169 31.407 73.169 70.103l-48.78 502.499zM420.607 93.11l48.778 140.219h-73.167l207.311 198.679-60.974-151.938h85.361l-207.309-186.959zM339.746 607.288c1.054 90.327 76.421 163.263 169.37 163.263 92.94 0 168.314-72.937 169.369-163.263h-338.74z" />
<glyph unicode="&#xe61e;" glyph-name="icon2" d="M511.979-107.056c-300.633 0-426.734 107.535-426.734 328.527 0 183.079 142.992 374.138 316.335 434.413h220.799c173.35-60.275 316.335-251.333 316.335-434.413-0.001-220.992-126.102-328.527-426.737-328.527zM630.242 256.086v0.073c19.951 0.105 36.089 16.314 36.089 36.281 0 19.987-16.137 36.177-36.089 36.303v0.086h-73.195c0.143 0.816-0.097 1.542-0.025 2.359l85.783 87.691c13.993 15.764 6.873 28.799-7.269 43.092-14.231 14.365-37.489 17.378-48.989 4.859l-73.762-78.629-79.675 79.676c-10.082 10.073-29.696 6.791-43.81-7.324-14.126-14.134-17.397-33.764-7.324-43.837l81.486-81.467c-1.525-1.95-2.512-4.115-3.104-6.42h-66.225v-0.068c-0.062 0-0.126 0-0.186 0-20.057 0-36.319-16.245-36.319-36.319 0-20.037 16.262-36.316 36.319-36.316 0.061 0 0.124 0.036 0.186 0.036v-0.073h72.591v-36.175h-72.591v-0.106c-0.062 0-0.126 0-0.186 0-20.057 0-36.319-16.245-36.319-36.317 0-20.039 16.262-36.319 36.319-36.319 0.061 0 0.124 0.036 0.186 0.036v-0.036h72.591v-36.566h0.753c-0.569-2.836-0.895-5.798-0.895-8.83 0-25.075 20.322-45.398 45.396-45.398 25.076 0 45.398 20.323 45.398 45.398 0 3.031-0.33 5.994-0.896 8.83h0.425v36.566l73.338 0.036c19.951 0.125 36.089 16.315 36.089 36.284 0 19.984-16.137 36.175-36.089 36.299v0.125h-73.338v36.174h73.337zM684.487 800.89l-7.632-9.54c-0.169-0.177-0.286-0.39-0.454-0.567l-64.548-80.686h-217.906l-64.426 80.545c-0.479 0.462-0.789 1.028-1.232 1.525l-6.978 8.724 1.231 2.466c-0.593 2.235-1.383 4.416-1.383 6.828 0 11.562 7.271 21.331 17.45 25.305l0.861 1.721c0 0 89.262 17.857 163.43 18.159 77.62 0.319 163.431-18.159 163.431-18.159l0.88-1.738c10.115-4.009 17.324-13.762 17.324-25.287 0-2.377-0.781-4.487-1.347-6.667l1.3-2.627z" />
<glyph unicode="&#xe61f;" glyph-name="suishendai" d="M835.105 714.99c-122.534 125.185-522.131 125.185-644.673 0-122.533-125.222-122.533-533.494 0-658.68 122.542-125.221 522.139-125.221 644.673 0 8.098 8.267 15.638 17.777 22.664 28.352-30.986 6.884-69.024 17.634-91.423 20.58-40.407 5.357-224.238-43.148-275.448-47.051-51.221-3.903-108.925 50.209-146.52 70.612-37.585 20.403-158.238 99.992-158.238 99.992s-5.988 56.064 58.609 41.196c64.589-14.902 164.093-70.612 164.093-70.612s71.667-22.106 122.205-6.92c34.942 10.538 81.443 26.152 99.725 44.816 17.060 17.423 15.179 34.987 0.773 32.716-29.815-4.754-144.613-15.755-175.812-5.89-31.208 9.865-48.675 47.477-35.164 70.576 0 0 40.628 2.341 134.793 23.526 94.164 21.183 117.565 35.944 158.237 17.67 34.447-15.507 114.71-64.473 208.297-83.492 17.823 159.922-11.096 345.253-86.791 422.607zM625.035 476.967c0-19.941-15.826-36.086-35.343-36.086h-303.516c-19.515 0-35.341 16.145-35.341 36.086v4.259c0 19.941 15.825 36.122 35.341 36.122h303.516c19.516 0 35.343-16.181 35.343-36.122v-4.259zM625.035 629.9c0-19.941-15.826-36.087-35.343-36.087h-303.516c-19.515 0-35.341 16.145-35.341 36.087v4.258c0 19.942 15.825 36.123 35.341 36.123h303.516c19.516 0 35.343-16.181 35.343-36.123v-4.258z" />
<glyph unicode="&#xe620;" glyph-name="xiaoyuanyiqiatong" d="M211.569 577.641c-18.133-113.044-53.867-206.425-99.096-297.292v-107.354c45.229 68.676 78.43 115.757 98.793 166.777v-340.050l107.656-0.145v388.13c20.363-35.484 59.129-98.309 90.839-140.389v115.615c-31.709 57.613-72.758 126.032-90.839 214.708h66.065v82.58h-66.065v107.354h-107.655l0.302-107.354h-90.838v-82.58h90.838zM913.353 69.529c-88.234 31.017-154.991 66.5-200.216 106.402 54.299 55.369 100.363 121.902 134.298 228.291h-99.097c-22.645-73.144-61.241-118.584-99.675-165.131-33.943 37.661-69.137 83.1-98.515 165.131h-90.839c31.657-101.97 68.292-168.455 124.869-228.291-49.79-42.146-115.518-73.241-199.191-102.031v-74.323c115.383 37.725 202.587 79.935 263.675 119.821 61.079-39.886 149.313-78.644 264.69-116.369v66.5zM913.498 618.932l-0.023 82.829-198.167-0.25v66.064h-107.355v-66.064h-189.934v-82.58h495.479zM616.212 577.641h-99.097c-15.854-51.016-50.019-74.729-115.612-99.096v-49.547c117.608 11.065 184.023 52.358 215.724 152.099l-1.015-3.456zM913.498 481.825c-61.087 19.95-95.248 40.386-115.611 95.817h-99.096c27.145-95.33 92.54-133.918 214.706-149.398v53.58z" />
<glyph unicode="&#xe621;" glyph-name="zhaocaibao" d="M958.956 359.56c0 111.227-87.977 213.024-190.802 213.024-46.085 0-90.338-30.166-122.824-60.227-22.073-20.295-163.075-112.501-224.984-115.012-133.897-5.423-255.291 59.494-293.025 191.176 0 0-17.149 33.164-19.485 87.812-0.445 22.075-15.903 20.976-23.408 1.185-2.748-7.044-16.347-26.451-18.928-69.799-1.090-17.698-1.413-37.994-0.401-60.331 11.333-286.747 237.13-518.76 502.307-506.483 134.263 6.188 251.492 80.871 334.829 180.976 1.57 1.779 3.059 3.608 4.56 5.476 28.368 35.5 52.161 81.847 52.161 132.204zM371.182 733.995c88.344 9.363 166.617-57.314 174.663-141.865 2.102-22.319-0.296-42.388-7.418-62.441-66.121-73.618-174.386-69.346-174.386-66.904-83.941 8.874-116.774 48.893-136.643 84.202-0.626 3.661-1.177 7.358-1.551 11.090-7.968 84.551 56.905 166.502 145.335 175.919z" />
<glyph unicode="&#xe622;" glyph-name="yulebao" d="M599.178 110.084h-166.398v214.533h161.186c53.869 0 94.381-8.354 121.487-25.065 27.146-16.712 40.693-43.606 40.693-80.703 0-72.51-52.323-108.765-156.968-108.765zM432.802 664.565h126.166c56.569 0 98.619-6.588 126.166-19.704 27.568-13.157 41.355-39.69 41.355-79.66 0-18.719-4.348-35.651-13.085-50.755-11.148-21.231-27.296-35.632-48.425-43.204-21.111-7.571-51.038-11.328-89.773-11.328h-142.405v204.651zM178.72 681.055h79.198v-72.61h-79.198v72.61zM178.72 545.74h79.198v-75.883h-79.198v75.883zM178.72 420.325h79.198v-72.65h-79.198v72.65zM178.72 291.577h79.198v-75.882h-79.198v75.882zM178.72 156.261h79.198v-72.528h-79.198v72.528zM769.826 394.977c76.856 34.768 115.26 89.721 115.26 164.76 0 21.854-3.655 64.635-10.977 84.259-7.351 19.623-18.007 37.52-31.987 53.728-13.949 16.209-30.018 29.606-48.164 40.172-21.322 12.634-45.454 21.149-72.298 25.588-26.915 4.46-58.691 6.648-95.357 6.648h-368.386v-29.686h-79.198v23.621c-11.127-3.595-20.206-8.817-27.235-15.667-14.834-14.501-22.246-38.303-22.246-71.403v-585.992c0-32.418 7.221-56.038 21.742-70.881 6.99-7.15 16.229-12.574 27.738-16.251v23.782h79.198v-29.807h354.246c40.493 0 75.933 1.988 106.324 5.885 30.379 3.938 57.293 10.666 80.683 20.227 37.378 16.050 67.065 40.854 89.059 74.457 22.013 33.603 33.010 71.384 33.010 113.342 0.001 90.746-50.473 151.826-151.412 183.219z" />
<glyph unicode="&#xe623;" glyph-name="wodebaozhang" d="M471.721 78.598c0-35.14-29.217-63.772-65.127-63.772-35.951 0-65.166 28.629-65.166 63.772 0 26.407-21.929 47.838-48.9 47.838-27.004 0-48.891-21.431-48.891-47.838 0-87.913 73.103-159.451 162.957-159.451 89.813 0 162.919 71.537 162.919 159.451v229.205h-97.792v-229.205zM542.094 734.998l-5.135 24.304c0 12.657-10.503 22.889-23.466 22.889-12.91 0-23.393-10.23-23.393-22.889l-7.198-24.304c-233.685-10.799-412.464-186.22-412.464-402.243h23.172c14.709 39.508 64.125 68.746 123.479 68.746 59.344 0 108.811-29.237 123.52-68.746h48.415c14.709 39.508 64.146 68.746 123.469 68.746 59.355 0 108.81-29.237 123.541-68.746h48.395c14.67 39.508 64.146 68.746 123.5 68.746 59.343 0 108.811-29.237 123.5-68.746h23.172c-0.003 215.376-179.762 390.556-412.508 402.243z" />
<glyph unicode="&#xe624;" glyph-name="huiyuantequan" d="M699.639 456.2v-53.637c0 0 26.819 0 53.647 0s26.829 18.862 26.829 27.034c0 7.977 0 26.602-26.829 26.602s-53.647 0.001-53.647 0.001zM762.029 348.377h-35.571v-106.761h-80.475v268.24h134.131c28.527 0 40.491-2.416 54.667-16.483 14.224-14.027 25.807-38.076 25.807-63.99 0-26.661-12.211-43.478-27.733-58.489-15.422-15.011-39.126-22.517-70.826-22.517zM592.337 509.856v-268.24h-80.474v268.24h80.474zM377.744 241.616h-80.475l-107.302 268.24h80.475l66.083-185.428 68.038 185.428h80.475l-107.294-268.24zM158.562 696.975c-45.483 0-93.776-26.17-93.776-79.826v-458.591c0-43.027 36.514-85.74 81.997-85.74h730.163c45.482 0 81.997 42.713 81.997 85.74v458.591c0 53.656-60.071 79.826-105.554 79.826h-694.826z" />
<glyph unicode="&#xe625;" glyph-name="chenggong" d="M512.697 820.556c-247.54 0-448.208-200.668-448.208-448.208s200.668-448.208 448.208-448.208c247.54 0 448.208 200.668 448.208 448.208s-200.668 448.208-448.208 448.208zM782.651 497.675l-310.141-316.86c-1.057-1.586-2.234-3.101-3.62-4.505-12.156-12.346-31.862-12.346-44.026 0l-154.053 156.424c-12.147 12.347-12.147 32.355 0 44.684 12.155 12.347 31.861 12.347 44.016 0l131.584-133.592 292.213 298.55c12.165 12.346 31.862 12.346 44.026 0 12.147-12.346 12.147-32.353 0-44.701z" />
<glyph unicode="&#xe626;" glyph-name="shibai" d="M512.697 820.555c-247.539 0-448.208-200.669-448.208-448.208s200.669-448.208 448.208-448.208 448.208 200.668 448.208 448.208c0 247.539-200.668 448.208-448.208 448.208zM690.686 238.792c12.265-12.274 12.265-32.171 0-44.427-12.283-12.274-32.171-12.274-44.453 0l-133.316 133.316-133.327-133.316c-12.274-12.274-32.161-12.274-44.445 0-12.265 12.256-12.265 32.153 0 44.427l133.335 133.353-133.335 133.317c-12.265 12.256-12.265 32.171 0 44.444 12.283 12.256 32.171 12.256 44.445 0l133.327-133.335 133.316 133.335c12.283 12.256 32.171 12.256 44.453 0 12.265-12.274 12.265-32.189 0-44.444l-133.335-133.317 133.335-133.353z" />
<glyph unicode="&#xe627;" glyph-name="jingshi" d="M512.697 819.532c-246.974 0-447.185-200.212-447.185-447.185s200.211-447.185 447.185-447.185 447.185 200.211 447.185 447.185-200.212 447.185-447.185 447.185zM475.066 582.501c0 19.967 15.947 36.185 35.622 36.185 19.664 0 35.611-16.218 35.611-36.185v-272.815c0-19.983-15.947-36.184-35.611-36.184-19.675 0-35.622 16.201-35.622 36.184v272.815zM510.689 125.094c-28.022 0-50.742 23.086-50.742 51.556s22.719 51.555 50.742 51.555c28.030 0 50.739-23.085 50.739-51.555s-22.709-51.556-50.739-51.556z" />
<glyph unicode="&#xe628;" glyph-name="tishi" d="M512.697 831.532c-246.975 0-447.185-200.192-447.185-447.185 0-246.958 200.21-447.185 447.185-447.185s447.185 200.227 447.185 447.185c0 246.992-200.211 447.185-447.185 447.185zM513.837 634.796c31.124 0 56.344-25.219 56.344-56.335s-25.22-56.372-56.344-56.372c-31.116 0-56.353 25.256-56.353 56.372s25.238 56.335 56.353 56.335zM562.857 141.794h-39.677c-20.743 0-42.26 18.051-42.26 34.572v228.36h-14.083c-20.743 0-37.565 16.814-37.565 37.556 0 20.743 16.821 37.556 37.565 37.556 0 0 45.818 0.108 47 0 19.050-1.419 32.861-9.752 32.861-25.256v-237.676h16.158c20.743 0 37.556-16.813 37.556-37.556 0-20.779-16.813-37.556-37.556-37.556z" />
<glyph unicode="&#xe629;" glyph-name="bangzhu" d="M512.697 832.555c-247.539 0-448.208-200.65-448.208-448.208 0-247.52 200.669-448.208 448.208-448.208s448.208 200.688 448.208 448.208c0 247.558-200.669 448.208-448.208 448.208zM510.988 160.862c-25.551 0-46.26 21.301-46.26 47.563s20.709 47.563 46.26 47.563c25.561 0 46.27-21.301 46.27-47.563s-20.71-47.563-46.27-47.563zM640.212 459.778c-6.383-12.292-13.97-22.87-22.751-31.77-8.781-8.937-24.557-23.928-47.299-45.047-6.291-5.945-11.334-11.161-15.119-15.684-3.792-4.487-6.62-8.608-8.463-12.366-1.869-3.72-3.292-7.477-4.303-11.197-1.013-3.757-2.544-10.322-4.579-19.733-3.518-19.95-14.525-29.91-33.027-29.91-9.612 0-17.708 3.248-24.266 9.776-6.574 6.53-9.848 16.195-9.848 29.071 0 16.086 2.399 30.056 7.204 41.837 4.815 11.818 11.189 22.177 19.15 31.077s18.685 19.514 32.18 31.806c11.836 10.724 20.399 18.822 25.66 24.293 5.287 5.471 9.72 11.562 13.323 18.273 3.61 6.712 5.415 14.007 5.415 21.849 0 15.356-5.508 28.306-16.504 38.846-11.017 10.541-25.205 15.831-42.594 15.831-20.355 0-35.336-5.325-44.948-15.976-9.62-10.651-17.754-26.298-24.42-47.053-6.291-21.666-18.22-32.499-35.791-32.499-10.35 0-19.103 3.793-26.217 11.38-7.121 7.587-10.678 15.794-10.678 24.584 0 18.237 5.635 36.695 16.915 55.406 11.28 18.675 27.757 34.176 49.396 46.433 21.631 12.293 46.889 18.421 75.742 18.421 26.826 0 50.49-5.143 71.026-15.393s36.393-24.22 47.581-41.837c11.19-17.654 16.788-36.839 16.788-57.558 0.001-16.305-3.191-30.604-9.573-42.859z" />
<glyph unicode="&#xe62a;" glyph-name="dengdai" d="M511.674 832.555c-247.54 0-448.208-200.651-448.208-448.208 0-247.521 200.668-448.208 448.208-448.208s448.208 200.687 448.208 448.208c0 247.557-200.668 448.208-448.208 448.208zM672.569 154.153c-14.571-14.701-38.499-14.701-53.063 0l-132.487 133.206c-9.893 9.957-8.999 23.817-8.999 44.901 0 21.12-4.78 265.212-4.78 265.212 0 20.936 16.753 37.897 37.414 37.897 20.663 0 37.414-16.961 37.414-37.897v-265.212c0-1.094 124.792-124.819 124.792-124.819 14.563-14.699 14.271-38.553-0.292-53.288z" />
<glyph unicode="&#xe62b;" glyph-name="xiangji" d="M512.141 516.766c-82.39 0-149.126-66.735-149.126-149.127s66.736-149.127 149.126-149.127c82.393 0 149.128 66.736 149.128 149.127s-66.737 149.127-149.128 149.127zM874.147 591.33h-107.75c-14.908 0-30.945 28.709-35.789 42.87l-32.057 68.976c-4.843 14.162-22.373 37.282-37.282 37.282h-298.254c-14.909 0-32.803-23.12-37.282-37.282l-27.578-71.961c-4.862-13.781-20.518-39.885-35.427-39.885h-108.133c-49.185 0-89.836-14.91-89.836-64.497v-404.877c0-49.223 40.651-89.855 89.836-89.855h719.553c49.589 0 85.379 40.632 85.379 89.855v404.877c-0.001 49.587-35.79 64.497-85.38 64.497zM512.141 143.947c-123.403 0-223.69 100.285-223.69 223.692 0 123.405 100.287 223.692 223.69 223.692 123.409 0 223.693-100.287 223.693-223.692-0.001-123.407-100.285-223.692-223.693-223.692z" />
<glyph unicode="&#xe62c;" glyph-name="shoujitongxunlu" d="M814.142 807.127h-598.689c-48.376 0-87.607-39.249-87.607-87.59v-113.185h17.523c19.285 0 35.042-17.219 35.042-36.505 0-19.25-15.757-36.505-35.042-36.505h-17.523v-109.513h17.523c19.285 0 35.042-17.219 35.042-36.504 0-19.251-15.757-36.504-35.042-36.504h-17.523v-109.514h17.523c19.285 0 35.042-17.218 35.042-36.505 0-19.464-15.757-36.502-35.042-36.502h-17.523v-113.151c0-48.376 39.232-87.626 87.607-87.626h598.689c48.359 0 80.301 39.249 80.301 87.626v664.391c-0.001 48.34-31.943 87.59-80.301 87.59zM696.733 112.041c-42.050-24.348-157.336 40.497-246.888 196.070-89.549 155.609-87.982 288.259-45.738 312.608 36.434 21.033 84.986 62.030 120.030-17.683 35.042-79.888 4.385-91.296-33.296-113.007-26.273-15.257 2.994-79.603 36.112-137.213 33.117-57.644 74.096-115.289 100.387-100.069 37.681 21.892 62.884 42.922 114.255-27.482 51.337-70.48-8.429-92.012-44.863-113.224z" />
<glyph unicode="&#xe62d;" glyph-name="shezhi" d="M511.606 564.076c-98.877 0-179.283-80.407-179.283-179.283 0-98.878 80.406-179.283 179.283-179.283 98.878 0 179.283 80.405 179.283 179.283 0 98.876-80.405 179.283-179.283 179.283zM511.606 250.331c-74.256 0-134.462 60.184-134.462 134.462s60.205 134.461 134.462 134.461 134.462-60.183 134.462-134.461c0-74.279-60.205-134.462-134.462-134.462zM959.814 295.151v179.283l-129.975 21.514c-3.592 12.103-8.536 24.203-14.795 35.409l77.078 107.129-126.845 126.845-107.106-77.103c-11.204 6.283-23.307 11.206-35.41 14.795l-21.512 129.977h-179.283l-21.513-129.976c-12.563-3.59-24.205-8.973-35.848-14.795l-106.23 75.746-126.847-126.389 76.205-106.23c-5.822-11.206-10.767-23.307-14.357-35.409l-129.976-21.514v-179.283l129.976-21.512c4.027-12.541 8.973-25.103 15.232-36.746l-76.182-106.23 126.846-126.846 106.668 76.642c11.205-5.384 22.41-10.308 34.513-13.896l21.513-129.976h179.283l21.512 129.976c12.562 4.048 24.643 8.973 36.308 15.253l107.128-77.101 126.846 126.846-77.101 107.565c5.361 11.205 10.306 22.41 13.898 34.514l129.976 21.513zM786.854 286.376c-2.887-9.74-7.133-19.149-11.335-27.838-7.090-14.751-5.559-32.237 3.984-45.543l54.932-76.642-73.009-73.009-76.183 54.843c-7.769 5.604-16.939 8.448-26.173 8.448-7.312 0-14.598-1.795-21.252-5.385-8.644-4.617-18.055-8.556-28.757-12.014-16.019-5.165-27.75-18.779-30.552-35.366l-15.276-92.465h-103.255l-15.276 92.465c-2.845 16.939-15.078 30.792-31.515 35.671-9.739 2.867-19.149 7.136-27.882 11.337-6.15 2.91-12.781 4.398-19.368 4.398-9.235 0-18.361-2.867-26.131-8.426l-75.788-54.406-73.008 73.010 54.056 75.307c9.935 13.875 11.161 32.302 2.998 47.36-4.399 8.207-8.339 17.748-12.015 29.238-5.165 15.998-18.778 27.729-35.366 30.507l-92.465 15.298v103.256l92.465 15.296c16.939 2.824 30.792 15.058 35.672 31.493 2.735 9.191 6.544 18.69 11.118 27.489 7.79 14.968 6.5 33.067-3.327 46.79l-54.012 75.263 73.030 72.725 75.394-53.73c7.746-5.514 16.852-8.338 26.043-8.338 6.85 0 13.7 1.576 20.025 4.75 9.104 4.53 18.778 9.103 28.145 11.752 16.633 4.793 29.041 18.69 31.93 35.804l15.276 92.465h103.254l15.276-92.465c2.845-16.939 15.079-30.792 31.515-35.673 9.323-2.779 18.428-6.544 26.262-10.942 6.829-3.808 14.357-5.691 21.885-5.691 9.235 0 18.384 2.824 26.175 8.426l76.205 54.867 72.965-72.965-54.866-76.204c-10.177-14.117-11.205-32.85-2.736-48.105 4.4-7.79 8.164-16.853 10.941-26.219 4.882-16.435 18.736-28.669 35.673-31.493l92.465-15.296v-103.255l-92.465-15.298c-16.94-2.822-30.793-15.057-35.674-31.492z" />
<glyph unicode="&#xe62e;" glyph-name="wode" d="M621.805 386.81c72.541 41.201 121.484 119.161 121.484 208.506 0 132.347-107.339 239.688-239.688 239.688-132.325 0-239.64-107.341-239.64-239.688 0-91.488 51.29-171.018 126.677-211.375-188.307-51.953-326.757-221.945-326.757-423.074 0-8.768 0.433-17.605 0.934-26.373l44.731 2.096c-0.433 8.153-0.866 16.216-0.866 24.278 0 208.555 163.983 380.052 371.532 395.949 7.699-0.752 15.51-1.141 23.39-1.141 9.955 0 19.77 0.618 29.381 1.802 212.379-10.934 381.804-184.638 381.804-396.609 0-7.653-0.41-15.352-0.911-24.324l44.822-0.844c0.454 8.382 0.866 16.787 0.866 25.168-0.001 205.019-143.872 377.682-337.759 425.941zM503.601 403.595c-105.722 0-191.722 85.998-191.722 191.721 0 105.746 86 191.769 191.722 191.769 105.791 0 191.769-86.022 191.769-191.769 0-105.723-85.977-191.721-191.769-191.721z" />
<glyph unicode="&#xe62f;" glyph-name="sousuo" d="M727.934 201.316c60.047 67.008 96.571 155.563 96.571 252.643 0 209.080-169.492 378.596-378.596 378.596-209.102 0-378.599-169.516-378.599-378.596 0-209.129 169.495-378.644 378.599-378.644 95.078 0 181.977 35.056 248.505 92.963l230.231-230.251 33.287 33.286-229.998 230.002zM445.911 122.142c-182.944 0-331.772 148.873-331.772 331.817 0 182.897 148.828 331.814 331.772 331.814 182.942 0 331.769-148.918 331.769-331.814 0-182.944-148.828-331.817-331.769-331.817z" />
<glyph unicode="&#xe630;" glyph-name="liebiao" d="M65.155 386.021v-22.599h177.731v45.198h-177.731zM65.155 747.621h177.732v-45.199h-177.732v45.199zM331.786 747.621h625.692v-45.199h-625.692v45.199zM65.155 69.622h177.732v-45.199h-177.732v45.199zM331.786 386.021v-22.599h625.692v45.198h-625.692zM324.679 69.622h632.799v-45.199h-632.799v45.199z" />
<glyph unicode="&#xe631;" glyph-name="bianji" d="M960.955 748.461l-436.837-436.837-35.184 35.184 436.837 436.837 35.184-35.184zM348.143 135.668l105.606 105.555-35.187 35.186-105.606-105.555zM910.136-13.627h-796.238v796.242h597.181v49.764h-646.947v-895.772h895.773v597.181h-49.768z" />
<glyph unicode="&#xe632;" glyph-name="shanchu" d="M660.496 533.172h49.67v-397.341h-49.67v397.341zM536.328 135.832v397.341h-49.666v-397.341h24.833zM312.824 533.172h49.669v-397.341h-49.669v397.341zM710.166 682.173v99.335c0 27.307-22.339 49.666-49.67 49.666h-298.002c-27.331 0-49.669-22.36-49.669-49.666v-99.335h-248.336v-49.668h99.336v-645.676c0-27.309 22.335-49.668 49.666-49.668h596.008c27.331 0 49.67 22.36 49.67 49.668v645.677h99.332v49.668h-248.336zM362.493 781.508h298.002v-99.335h-298.002v99.335zM809.498-13.17h-596.008v645.676h596.008v-645.676z" />
<glyph unicode="&#xe633;" glyph-name="fenxiang" d="M909.838-13.327h-794.996v794.996h397.497v49.687h-447.184v-894.37h894.37v447.185h-49.687zM711.090 831.356v-49.687h163.616l-610.802-610.803 35.132-35.131 610.802 610.803v-163.618h49.687v248.436z" />
<glyph unicode="&#xe634;" glyph-name="ditu" d="M511.663 422.902c61.621 0 111.799 47.734 111.799 106.472s-50.178 106.47-111.799 106.47c-61.62 0-111.798-47.732-111.798-106.47s50.177-106.472 111.798-106.472zM511.663 593.265c37.076 0 67.081-28.606 67.081-63.891 0-35.244-30.003-63.893-67.081-63.893-37.012 0-67.080 28.65-67.080 63.893 0 35.286 30.067 63.891 67.080 63.891zM824.066 558.982c-0.874-14.937-1.244-26.684-4.234-49.437l94.308 29.74v-466.63l-268.32-74.634-313.036 86.731-223.598-71.795v464.796l92.561 22.402c-2.228 12.797-3.123 26.421-3.123 40.048v1.703l-134.156-32.362v-553.666l44.72 14.456 223.838 71.925 312.795-86.657 313.039 86.701v553.71l-134.793-37.032zM394.186 227.035c1.747-2.488 3.472-4.497 4.87-5.94 40.963-49.435 82.232-82.32 84.023-83.717l28.758-22.797 28.627 22.971c1.791 1.399 42.928 34.675 83.805 83.938 1.398 1.484 3.189 3.534 4.914 6.070 58.453 75.9 131.122 185.866 147.544 281.069 3.164 21.703 3.253 34.849 3.253 36.288 0.547 71.143-27.906 138.002-80.093 188.050-50.529 48.475-117.391 75.159-188.225 75.159-70.551 0-137.236-26.684-187.764-75.159-52.472-50.308-81.099-117.521-80.552-189.184 0-1.136 0.086-14.326 3.123-34.982 17.644-101.884 99.657-219.665 147.717-281.767zM511.663 765.549c123.438 0 224.494-98.391 223.599-220.629 0 0 0-11.048-2.687-29.389-14.76-85.595-84.504-191.629-140.404-264.038-0.458-0.874-1.354-1.703-1.791-2.14-38.908-47.254-78.717-79.219-78.717-79.219s-39.807 31.529-78.716 78.782c-0.437 0.437-1.332 1.31-1.791 2.14-55.9 71.971-125.645 178.441-140.405 263.645-2.686 18.298-2.686 29.39-2.686 29.39-0.895 122.235 100.159 221.458 223.598 221.458z" />
<glyph unicode="&#xe635;" glyph-name="tianjia" d="M537.54 409.191v422.341h-49.687v-422.341h-422.341v-49.688h422.341v-422.341h49.687v422.341h422.342v49.688z" />
<glyph unicode="&#xe636;" glyph-name="bangzhuxiantiao" d="M542.92 179.424c0-16.417-13.298-29.763-29.694-29.763-16.463 0-29.785 13.346-29.785 29.763 0 16.419 13.323 29.717 29.785 29.717 16.396 0 29.694-13.298 29.694-29.717zM614.644 599.77c25.59-21.645 38.384-51.866 38.384-90.71 0-22.929-5.044-43.703-15.201-62.185-10.663-19.031-27.814-38.705-51.661-58.975-21.6-17.609-36.182-34.44-43.703-50.308-7.498-16.784-11.259-40.584-11.259-71.448 0-6.236-2.178-11.281-6.627-15.271-3.989-3.53-8.575-5.274-13.895-5.274-5.733 0-10.547 1.744-14.537 5.274-3.99 3.989-6.008 9.035-6.008 15.271 0 31.276 4.219 57.095 12.612 77.41 8.37 21.187 23.181 40.356 44.346 57.599 25.176 21.188 42.603 40.586 52.325 58.288 8.392 15.455 12.565 33.065 12.565 52.968-0.457 22.47-7.475 40.815-21.21 54.939-16.279 17.198-40.334 25.818-72.137 25.818-37.535 0-64.683-12.839-81.446-38.383-11.443-18.116-17.174-39.484-17.174-64.295 0-6.145-2.248-11.418-6.604-15.821-3.99-4.036-8.645-5.963-13.919-5.963-5.778-0.458-10.616 1.056-14.583 4.633-3.966 3.944-5.939 9.446-5.939 16.555 0 43.658 14.538 78.512 43.682 104.559 26.483 23.434 58.448 35.082 95.983 35.082h7.292c36.16 0.001 65.739-9.905 88.716-29.762zM512.931 787.472c221.912 0 402.507-180.547 402.507-402.506s-180.594-402.507-402.507-402.507c-221.959 0-402.507 180.548-402.507 402.507s180.548 402.506 402.507 402.506zM512.931 832.185c-246.998 0-447.243-200.221-447.243-447.219 0-247 200.245-447.267 447.243-447.267 246.952 0 447.22 200.267 447.22 447.267 0 246.998-200.267 447.219-447.22 447.219" />
<glyph unicode="&#xe637;" glyph-name="gengduo" d="M139.664 460.215c-41.111 0-74.509-33.373-74.509-74.509s33.399-74.509 74.509-74.509 74.509 33.374 74.509 74.509c0.001 41.136-33.398 74.509-74.509 74.509zM512.212 460.215c-41.111 0-74.509-33.373-74.509-74.509s33.399-74.509 74.509-74.509 74.509 33.374 74.509 74.509c0 41.136-33.398 74.509-74.509 74.509zM884.759 460.215c-41.112 0-74.509-33.373-74.509-74.509s33.398-74.509 74.509-74.509 74.509 33.374 74.509 74.509c0.001 41.136-33.397 74.509-74.509 74.509z" />
<glyph unicode="&#xe638;" glyph-name="saoyisao" d="M954.484 341.196h-884.284c-19.021 0-34.454 15.452-34.454 34.479s15.435 34.466 34.454 34.466h884.284c19.014 0 34.454-15.44 34.454-34.466s-15.44-34.479-34.454-34.479M908.551 543.088c-19.014 0-34.454 15.427-34.454 34.479v149.371h-149.297c-19.013 0-34.453 15.445-34.453 34.473s15.441 34.473 34.453 34.473h183.75c19.014 0 34.454-15.445 34.454-34.473v-183.843c0-19.053-15.44-34.479-34.454-34.479M299.885 726.939h-149.297v-149.371c0-19.052-15.435-34.479-34.454-34.479-19.013 0-34.453 15.427-34.453 34.479v183.842c0 19.027 15.44 34.473 34.453 34.473h183.75c19.014 0 34.454-15.445 34.454-34.473 0-19.026-15.44-34.471-34.454-34.471M116.134 203.318c19.021 0 34.454-15.453 34.454-34.479v-149.371h149.296c19.014 0 34.454-15.441 34.454-34.479 0-19.026-15.44-34.466-34.454-34.466h-183.749c-19.013 0-34.453 15.441-34.453 34.466v183.851c0 19.026 15.44 34.479 34.453 34.479M724.8 19.469h149.296v149.371c0 19.026 15.441 34.479 34.454 34.479s34.454-15.453 34.454-34.479v-183.851c0-19.026-15.441-34.466-34.454-34.466h-183.749c-19.013 0-34.453 15.441-34.453 34.466-0.001 19.040 15.44 34.479 34.453 34.479z" />
<glyph unicode="&#xe639;" glyph-name="fukuanma" d="M228.889 534.636h23.967c6.612 0 11.983 5.372 11.983 11.984v263.636c0 6.612-5.371 11.984-11.983 11.984h-23.967c-6.612 0-11.983-5.372-11.983-11.984v-263.636c0-6.612 5.371-11.984 11.983-11.984zM360.708 534.636h71.901c6.613 0 11.984 5.372 11.984 11.984v263.636c0 6.612-5.371 11.984-11.984 11.984h-71.901c-6.612 0-11.984-5.372-11.984-11.984v-263.636c0-6.612 5.371-11.984 11.984-11.984zM768.145 534.636h23.968c6.611 0 11.982 5.372 11.982 11.984v263.636c0 6.612-5.371 11.984-11.982 11.984h-23.968c-6.612 0-11.983-5.372-11.983-11.984v-263.636c0-6.612 5.371-11.984 11.983-11.984zM672.278 390.835v-215.703c0-19.848 16.114-35.951 35.951-35.951s35.951 16.102 35.951 35.951v215.703c0 19.848-16.114 35.951-35.951 35.951s-35.951-16.103-35.951-35.951zM875.997 534.636h59.919c6.612 0 11.983 5.372 11.983 11.984v263.636c0 6.612-5.371 11.984-11.983 11.984h-59.919c-6.611 0-11.983-5.372-11.983-11.984v-263.636c0-6.612 5.372-11.984 11.983-11.984zM696.245 546.62v263.636c0 6.612-5.372 11.984-11.983 11.984h-71.902c-6.612 0-11.983-5.372-11.983-11.984v-263.636c0-6.612 5.371-11.984 11.983-11.984h71.902c6.611 0 11.983 5.372 11.983 11.984zM519.149 426.785h-436.718c-11.773 0-21.31-9.537-21.31-21.31v-436.718c0-11.772 9.537-21.31 21.31-21.31h436.718c11.772 0 21.309 9.538 21.309 21.31v436.718c0 11.773-9.537 21.31-21.309 21.31zM468.558 19.347h-335.537v335.538h335.537v-335.538zM923.931 235.049c-19.848 0-35.951-16.102-35.951-35.951v-179.751h-179.752c-19.837 0-35.951-16.103-35.951-35.951s16.114-35.951 35.951-35.951h215.703c19.848 0 35.951 16.103 35.951 35.951v215.702c0 19.849-16.104 35.951-35.951 35.951zM85.087 534.636h59.917c6.613 0 11.984 5.372 11.984 11.984v263.636c0 6.612-5.371 11.984-11.984 11.984h-59.917c-6.612 0-11.984-5.372-11.984-11.984v-263.636c0-6.612 5.371-11.984 11.984-11.984zM923.931 426.785c-19.848 0-35.951-16.103-35.951-35.951v-47.934c0-19.848 16.103-35.951 35.951-35.951s35.951 16.103 35.951 35.951v47.934c0 19.848-16.104 35.951-35.951 35.951zM252.856 115.214h95.867c13.236 0 23.967 10.744 23.967 23.968v95.867c0 13.224-10.731 23.968-23.967 23.968h-95.867c-13.236 0-23.967-10.744-23.967-23.968v-95.867c-0.001-13.224 10.73-23.968 23.967-23.968zM522.484 534.636c9.923 0 17.974 5.372 17.974 11.984v263.636c0 6.612-8.051 11.984-17.974 11.984s-17.974-5.372-17.974-11.984v-263.636c0-6.612 8.051-11.984 17.974-11.984z" />
<glyph unicode="&#xe63a;" glyph-name="chengshifuwu" d="M921.66-2.114l-840.090 0.425c0 0-90.418-4.057-18.761 63.969 18.829 10.309 40.889 19.91 65.632 28.643-6.166 13.879-9.717 29.371-9.717 45.791 0 58.646 44.015 106.176 98.318 106.176s98.318-47.531 98.318-106.176c0-1.248-0.133-2.463-0.173-3.693 6.338 0.821 12.735 1.625 19.201 2.368v549.18c0 36.084 26.701 64.676 62.899 64.676h376.887c36.198 0 61.463-28.593 61.463-64.676v-579.987c43.991-12.33 81.826-27.018 111.415-43.548 107.844-71.911-25.396-63.147-25.396-63.147zM544.59 603.721c0 18.039-14.231 32.338-32.337 32.338h-64.676c-18.103 0-32.337-14.299-32.337-32.338v-88.937c0-18.033 22.318-32.338 40.423-32.338h56.591c18.107 0 32.337 14.305 32.337 32.338v88.937zM544.59 369.261c0 18.047-14.231 32.337-32.337 32.337h-64.676c-18.103 0-32.337-14.29-32.337-32.337v-88.933c0-18.033 22.318-32.338 40.423-32.338h56.591c18.107 0 32.337 14.305 32.337 32.338v88.933zM754.794 603.721c0 18.039-14.235 32.338-32.337 32.338h-64.679c-18.103 0-32.338-14.299-32.338-32.338v-88.937c0-18.033 22.321-32.338 40.423-32.338h56.594c18.103 0 32.337 14.305 32.337 32.338v88.937zM754.794 369.261c0 18.047-14.235 32.337-32.337 32.337h-64.679c-18.103 0-32.338-14.29-32.338-32.337v-88.933c0-18.033 22.321-32.338 40.423-32.338h56.594c18.103 0 32.337 14.305 32.337 32.338v88.933z" />
<glyph unicode="&#xe63b;" glyph-name="jiaoyujiaofei" d="M940.839 513.35v-157.286l33.109-33.119-69.040-71.848-69.892 69.729 47.863 43.517v124.178c-203.082-83.734-268.184-109.76-313.223-130.079s-77.469-20.215-122.141-3.383-257.321 94.44-362.909 144.975c-70.457 33.717-74.993 55.095 1.214 83.708 99.452 37.784 263.829 98.291 350.966 131.314 51.578 20.867 78.85 32.257 126.192 8.462 84.539-34.906 277.703-107.389 373.752-147.047 83.613-36.493 27.403-48.494 4.109-63.121zM579.451 296.182c49.109 20.264 115.33 53.769 187.534 84.703v-248.354c0 0-93.381-99.338-257.54-99.338-176.788 0-272.279 99.338-272.279 99.338v231.812c55.725-22.704 118.308-42.239 194.037-68.16 46.675-16.608 105.903-22.349 148.247 0z" />
<glyph unicode="&#xe63c;" glyph-name="yangchengtongchongzhi" d="M850.461 119.511c-18.828-50.225-35.879-86.841-82.464-86.841h-647.835c-46.579 0-84.962 40.267-84.962 86.841l140.559 506.029c13.568 57.091 35.889 86.83 82.462 86.83h647.837c46.582 0 84.962-40.246 84.962-86.83l-140.559-506.029zM322.512 546.758c-4.324-4.417-7.199-8.764-7.353-9.024-0.103-0.207-2.479-4.999-3.184-6.909-0.705-1.888-2.947-9.377-3.051-9.71l-2.427-8.982c0 0-1.93-9.294-2.22-10.788-0.228-1.182-1.349-9.22-1.878-13.091-0.135-0.985-0.228-1.638-0.238-1.7-0.062-0.395-1.182-11.814-0.893-17.924 0.271-6.099 0.842-16.711 0.85-16.762 0.012-0.135 1.63-13.733 3.879-22.923 2.159-8.775 4.243-15.685 6.389-21.12 2.054-5.165 7.033-14.688 7.739-15.788 0.126-0.196 0.415-0.705 0.829-1.452 2.054-3.67 6.868-12.26 11.296-17.218 6.098-6.826 12.447-13.796 17.25-17.406 4.337-3.258 13.223-9.334 19.065-11.43 5.268-1.909 8.96-2.885 10.165-3.008h0.135l0.652 0.020 0.147 0.58c0.165 0.622-0.292 0.871-1.038 1.266-1.317 0.705-4.378 2.343-6.369 5.020-2.864 3.838-7.136 11.108-9.781 18.941-2.623 7.769-4.16 14.998-4.73 17.726-0.341 1.629-1.131 6.691-1.899 11.585-0.486 3.143-0.986 6.327-1.389 8.775-0.343 2.074-1.515 12.769-2.107 24.5-0.748 14.802 0.135 30.142 0.135 30.288 0.135 1.93 2.53 27.758 5.259 39.167l0.249 1.017c2.636 11.015 4.388 18.298 8.974 25.309 6.037 9.211 8.764 11.285 9.315 11.306 0.435 0 0.789 0.291 0.87 0.694 0.386 1.794-9.438 9.679-14.147 11.814-5.445 2.448-12.074 4.969-19.997 4.969-6.372-0.175-16.019-3.182-20.501-7.746zM723.323 496.39c-10.123 57.497-51.25 77.898-83.396 77.898-22.301 0-43.337-8.816-59.229-24.832-17.728-17.872-27.413-43.046-27.996-72.806v-0.372l0.467-0.467h0.313c0.59 0 0.693 0.166 3.35 4.283 8.306 12.914 33.596 52.185 61.011 58.201 2.935 0.644 5.922 0.976 8.869 0.976 14.367 0 27.124-7.531 34.987-20.642 14.199-23.691 10.123-60.722-11.171-101.612-8.848-16.99-36.646-66.55-58.668-91.362-5.174-5.829-10.518-12.011-16.182-18.566-20.434-23.67-41.563-48.149-55.514-56.511-2.073-1.245-3.993-2.758-5.695-4.523 0.166 8.175 0.373 16.347 0.57 24.48 0.489 20.019 1.005 40.702 1.005 60.43 0 31.533-1.212 57.61-3.609 77.484-1.411 11.743-3.538 21.866-5.249 29.996-0.643 3.030-1.225 5.778-1.68 8.215-3.89 20.746-18.172 50.348-26.556 62.899-7.946 11.867-21.658 25.756-35.807 36.242-13.94 10.332-37.859 20.227-55.68 23.007-5.071 0.797-10.041 1.203-14.77 1.203-11.223 0-19.729-2.22-25.89-4.171-6.015-1.887-11.731-5.248-15.475-7.738v-0.010c-2.966-1.525-4.419-3.164-4.481-3.247l1.037-1.089c0.019 0.011 1.66 1.317 4.23 3.029 5.613 2.852 12.935 3.205 21.13 0.944 4.471-1.223 9.657-3.973 14.928-6.857 18.659-14.013 26.118-24.738 31.573-36.522 3.983-8.609 7.281-17.436 11.369-30.453 4.109-13.089 7.833-35.869 9.698-59.415 0.925-11.618 1.671-24.065 2.458-37.237 1.971-33.047 4.003-67.215 9.149-94.101 2.78-14.541 6.119-27.86 10.186-40.743 12.457-39.354 30.578-68.77 43.378-83.148 11.751-13.234 27.239-26.698 30.683-26.698 0.081 0 0.155 0 0.226 0.019l0.013-0.019 0.051 0.019c0.332 0.083 0.538 0.25 0.663 0.395 0.019 0.020 0.042 0.062 0.061 0.082h0.011c0.322 0.207 32.769 21.162 57.299 41.761 88.113 73.939 168.15 198.951 148.327 311.578z" />
<glyph unicode="&#xe63d;" glyph-name="chengshiyiqiatong" d="M792.23 82.733h-557.702c-63.126 0-105.228 52.635-105.228 115.749v484.043c0 63.135 42.102 115.749 105.228 115.749h557.702c63.126 0 105.227-52.614 105.227-115.749v-484.043c0.001-63.115-42.101-115.749-105.227-115.749zM692.541 156.966c31.559 0 57.147 25.588 57.147 57.156 0 31.546-25.588 57.134-57.147 57.134-31.567 0-57.156-25.588-57.156-57.134 0-31.569 25.589-57.156 57.156-57.156zM328.214 156.966c31.569 0 57.156 25.588 57.156 57.156 0 31.546-25.587 57.134-57.156 57.134-31.567 0-57.156-25.588-57.156-57.134 0.001-31.569 25.59-57.156 57.156-57.156zM792.23 629.911c0 18.045-13.535 42.091-31.569 42.091h-494.564c-18.035 0-31.569-24.046-31.569-42.091v-231.499c0-18.023 13.534-42.091 31.569-42.091h494.565c18.034 0 31.569 24.067 31.569 42.091v231.499zM617.969 414.69l-0.586 0.432c-3.247-3.453-7.819-5.631-12.926-5.631-9.825 0-17.788 7.963-17.788 17.798 0 3.207 0.916 6.187 2.406 8.787l-0.853 0.626c1.222 0.924 2.342 1.983 3.504 2.981 0.718 0.74 1.52 1.398 2.355 1.993 14.529 13.554 23.665 32.781 23.665 54.217 0 25.546-12.886 48.061-32.514 61.43l0.422 0.308c-3.771 3.546-6.156 8.539-6.156 14.12 0 10.727 8.683 19.421 19.412 19.421 7.635 0 14.191-4.46 17.356-10.893l2.088 1.552c22.544-20.727 36.756-50.363 36.756-83.39-0.001-33.224-14.378-63.015-37.139-83.751zM531.844 417.999c-5.293 0-10.122 1.788-14.068 4.716-0.74-0.155-1.274-0.257-1.274-0.257l-107.887 95.649v-76.383c0-13.101-10.626-23.726-23.728-23.726s-23.728 10.625-23.728 23.726v120.426c0 13.102 10.626 23.717 23.728 23.717 7.88 0 14.807-3.874 19.124-9.783 1.068-0.35 1.828-0.597 1.828-0.597l102.278-83.195v69.857c0 13.102 10.625 23.717 23.727 23.717s23.728-10.615 23.728-23.717v-120.426c0.001-13.102-10.625-23.726-23.727-23.726zM339.755 30.118c0-39.213-26.543-68.397-65.767-68.397s-71.028 31.815-71.028 71.028v28.937h136.795v-31.568zM813.275 30.118c0-39.213-26.543-68.397-65.767-68.397s-71.028 31.815-71.028 71.028v28.937h136.795v-31.568z" />
<glyph unicode="&#xe63e;" glyph-name="yiban" d="M512.516 831.873c-247 0-447.953-200.932-447.953-447.953 0-246.976 200.954-447.909 447.953-447.909s447.951 200.933 447.951 447.909c0 247.020-200.952 447.953-447.951 447.953zM512.516-9.758c-217.097 0-393.679 176.625-393.679 393.678 0 217.099 176.582 393.722 393.679 393.722 217.095 0 393.678-176.624 393.678-393.722 0-217.055-176.583-393.678-393.678-393.678zM632.025 386.655c16.673 0 30.157 13.505 30.157 30.133 0 16.671-13.484 30.176-30.157 30.176h-63.621l60.414 82.002c11.776 11.773 11.776 30.851 0 42.625-11.773 11.775-30.85 11.775-42.626 0l-74.699-96.311-74.701 96.311c-11.775 11.775-30.852 11.775-42.626 0s-11.774-30.852 0-42.625l60.414-82.002h-63.622c-16.671 0-30.133-13.507-30.133-30.176 0-16.629 13.463-30.133 30.133-30.133h90.401v-60.226h-90.401c-16.671 0-30.133-13.504-30.133-30.175 0-16.628 13.463-30.133 30.133-30.133h90.401v-80.356c0-16.67 13.484-30.175 30.134-30.175 16.628 0 30.133 13.506 30.133 30.175v80.356h90.399c16.673 0 30.157 13.506 30.157 30.133 0 16.672-13.484 30.175-30.157 30.175h-90.399v60.226h90.399z" />
<glyph unicode="&#xe63f;" glyph-name="canyin" d="M959.539 543.095c0 13.53-10.958 24.507-24.49 24.507h-99.458c-13.53 22.449-28.775 44.327-45.64 65.138-80.861 99.631-180.186 154.515-279.664 154.515s-198.822-54.884-279.662-154.515c-16.866-20.811-32.111-42.687-45.642-65.138h-97.058c-13.551 0-24.49-10.977-24.49-24.507 0-184.016 19.782-364.638 207.094-442.277l-3.22-91.665c-0.229-6.67 2.249-13.111 6.86-17.876 4.63-4.801 10.996-7.508 17.647-7.508h424.896c6.632 0 12.998 2.707 17.628 7.508 4.612 4.766 7.089 11.206 6.843 17.876l-3.010 86.138c200.517 74.246 221.366 259.253 221.366 447.804zM510.286 738.241c104.796 0 202.159-77.525 266.38-170.637h-532.76c64.223 93.113 161.566 170.637 266.38 170.637zM691.349 32.785h-374.168l1.792 51.339c52.693-14.788 116.096-22.982 192.515-22.982 69.691 0 128.388 6.897 178.204 19.324l1.658-47.681zM511.488 110.155c-325.59 0-395.073 143.31-398.903 408.471h797.788c-3.812-265.161-73.313-408.471-398.885-408.471zM558.843 646.652l44.823-22.411c3.241-1.6 6.632-2.363 10.024-2.363 8.213 0 16.122 4.535 20.049 12.386 5.547 11.091 1.048 24.546-10.024 30.073l-44.823 22.41c-11.071 5.565-24.544 1.067-30.071-10.023-5.528-11.053-1.049-24.545 10.022-30.072zM408.94 629.12c4.327 0 8.691 1.22 12.559 3.849l35.389 23.974c10.253 6.937 12.92 20.887 5.965 31.14s-20.867 12.959-31.121 5.983l-35.389-24.011c-10.233-6.938-12.94-20.849-5.965-31.102 4.327-6.403 11.378-9.833 18.562-9.833z" />
<glyph unicode="&#xe640;" glyph-name="gouwu" d="M854.569 642.328h-138.1v61.228c0 46.616-40.144 87.515-85.906 87.515h-235.8c-45.982 0-86.323-40.898-86.323-87.515v-61.228h-138.1c-14.097 0-25.514-11.436-25.514-25.531v-538.151c0-70.005 54.082-126.984 120.571-126.984h494.511c66.273 0 120.194 56.98 120.194 126.984v538.151c0.001 14.095-11.434 25.531-25.531 25.531zM359.502 703.557c0 18.067 17.788 36.451 35.261 36.451h235.8c17.609 0 34.882-18.067 34.882-36.451v-61.228h-305.944v61.228zM308.439 591.265v-82.433c-7.425-7.187-12.071-17.232-12.071-28.39 0-21.879 17.77-39.668 39.668-39.668 21.879 0 39.628 17.789 39.628 39.668 0 13.064-6.392 24.579-16.162 31.807v79.016h305.944v-79.016c-9.787-7.227-16.2-18.742-16.2-31.807 0-21.879 17.748-39.668 39.646-39.668 21.899 0 39.648 17.789 39.648 39.668 0 11.158-4.647 21.203-12.071 28.39v82.433h112.589v-457.902h-633.19v457.902h112.571zM759.907 2.727h-494.511c-38.337 0-69.528 34.028-69.528 75.92v10.086h633.19v-10.086c-0.001-41.892-31.031-75.92-69.152-75.92z" />
<glyph unicode="&#xe641;" glyph-name="fushi" d="M804.651 574.174h-183.811c-6.046 0-11.531-2.442-15.494-6.366h-78.795v30.869c0 12.171-9.889 22.060-22.060 22.060-40.578 0-73.569 32.99-73.569 73.549s32.99 73.589 73.569 73.589c40.558 0 73.548-33.031 73.548-73.589 0-12.171 9.889-22.060 22.061-22.060 12.191 0 22.060 9.889 22.060 22.060 0 64.9-52.789 117.669-117.669 117.669-64.9 0-117.69-52.769-117.69-117.669 0-57.334 41.238-105.258 95.63-115.627v-10.85h-62.859c-3.964 3.923-9.449 6.366-15.495 6.366h-183.811c-50.547 0-91.645-41.118-91.645-91.645v-253.596c0-12.171 9.87-22.062 22.060-22.062h102.416l-17.637-226.331c-0.46-6.124 1.622-12.171 5.806-16.693 4.183-4.525 10.029-7.088 16.195-7.088h509.995c6.146 0 12.011 2.563 16.175 7.088 4.183 4.523 6.286 10.569 5.805 16.693l-17.615 226.331h102.415c12.172 0 22.060 9.891 22.060 22.062v253.596c-0.001 50.526-41.12 91.644-91.646 91.644zM593.855 523.687c-11.771-33.671-43.761-57.895-81.397-57.895-37.634 0-69.625 24.223-81.396 57.895h162.793zM852.175 250.993h-83.798l-8.348 107.179c-0.941 12.131-11.531 21.1-23.702 20.259-12.152-0.96-21.22-11.571-20.279-23.701l27.565-353.85h-462.31l27.566 353.85c0.94 12.13-8.148 22.741-20.298 23.701-12.071 0.92-22.742-8.127-23.703-20.259l-8.328-107.179h-83.799v231.536c0 26.224 21.3 47.524 47.524 47.524h163.633c10.489-61.458 64.14-108.381 128.559-108.381 64.401 0 118.050 46.924 128.561 108.381h163.632c26.204 0 47.523-21.299 47.523-47.524v-231.536z" />
<glyph unicode="&#xe642;" glyph-name="jiaotong" d="M959.839 374.452c0 40.799-33.001 73.964-73.705 74.361v205.516c0 58.004-47.198 105.211-105.218 105.211h-538.759c-58.020 0-105.218-47.208-105.218-105.211v-205.722c-39.66-1.589-71.494-34.115-71.494-74.154 0-40.031 31.834-72.538 71.494-74.128v-184.753c0-12.541 10.156-22.698 22.688-22.698h18.025v-28.292c0-28.467 14.552-41.492 26.756-47.364 13.291-6.392 28.716-6.908 44.668-6.908h26.116c21.367 0 71.425 0 71.425 54.272v28.292h329.839v-28.292c0-28.467 14.553-41.492 26.765-47.364 13.284-6.392 28.709-6.908 44.668-6.908h26.108c21.376 0 71.434 0 71.434 54.272v28.292h18.016c12.53 0 22.687 10.157 22.687 22.698v184.511c40.705 0.413 73.707 33.58 73.707 74.37zM110.82 374.452c0 15.027 11.486 27.275 26.117 28.776v-57.546c-14.631 1.521-26.117 13.75-26.117 28.769zM301.249 64.58c0-4.113-0.648-6.080-0.63-6.219-2.333-1.797-10.899-2.695-25.427-2.695h-26.116c-14.527 0-23.086 0.898-25.167 2.384-0.244 0.448-0.889 2.417-0.889 6.53v28.292h78.23v-28.292zM800.063 64.58c0-4.113-0.658-6.080-0.64-6.219-2.331-1.797-10.891-2.695-25.427-2.695h-26.108c-14.535 0-23.095 0.898-25.168 2.384-0.24 0.448-0.898 2.417-0.898 6.53v28.292h78.24v-28.292zM840.758 264.81h-120.066c-12.532 0-22.689-10.157-22.689-22.698s10.156-22.697 22.689-22.697h120.066v-81.184h-658.453v81.184h120.074c12.532 0 22.689 10.157 22.689 22.697 0 12.541-10.156 22.698-22.689 22.698h-120.074v93.446h658.454v-93.446zM840.758 403.627h-658.453v250.701c0 32.992 26.851 59.835 59.851 59.835h538.758c33.002 0 59.843-26.842 59.843-59.835v-250.701zM886.134 345.476v57.977c15.684-0.414 28.337-13.231 28.337-29.002 0.001-15.779-12.653-28.595-28.337-28.976z" />
<glyph unicode="&#xe643;" glyph-name="yule" d="M903.967 195.753l-301.873 374.269c0.403 5.687 0.869 11.33 0.869 17.141 0 135.127-109.934 245.060-245.072 245.060-135.147 0-245.082-109.935-245.082-245.060 0-135.137 109.935-245.071 245.082-245.071 5.782 0 11.456 0.467 17.132 0.847l374.235-301.884c5.029-4.030 11.085-6.024 17.12-6.024 7.012 0 14.003 2.672 19.285 7.977l21.341 21.34c0.041-8.228-1.018-16.928-4.159-25.455-7.022-18.967-23.558-34.071-49.143-44.804-30.124-12.687-76.985 9.29-131.244 34.705-99.908 46.841-236.712 110.996-383.124-3.734-11.86-9.292-13.928-26.476-4.648-38.312 9.292-11.838 26.435-13.917 38.293-4.626 119.99 94.065 229.604 42.642 326.332-2.715 47.417-22.234 92.858-43.532 134.734-43.532 14.023 0 27.665 2.376 40.829 7.934 40.031 16.845 66.655 42.472 79.119 76.204 13.036 35.217 6.577 70.261 0.044 91.392l47.986 47.988c9.853 9.842 10.703 25.542 1.943 36.359zM167.351 587.163c0 105.055 85.474 190.517 190.54 190.517 105.056 0 190.529-85.462 190.529-190.517s-85.474-190.549-190.529-190.549c-105.066 0-190.54 85.494-190.54 190.549zM764.428 98.888l-320.946 258.902c66.296 24.865 118.916 77.477 143.75 143.752l258.903-320.935-38.642-38.651c-3.531-2.249-6.417-5.134-8.528-8.529l-34.537-34.538zM600.173 380.109c-10.661 10.65-27.919 10.65-38.568 0s-10.649-27.919 0-38.568l59.094-59.104c5.325-5.304 12.304-7.978 19.284-7.978 6.971 0 13.949 2.674 19.274 7.978 10.661 10.65 10.661 27.918 0 38.567l-59.084 59.105z" />
<glyph unicode="&#xe644;" glyph-name="shejiao" d="M748.858 399.409c58.797 42.168 95.676 109.894 95.676 181.703 0 124.101-100.139 225.048-223.23 225.048-70.798 0-133.931-33.24-175.041-84.879-16.65 4.473-34.037 7.099-52.069 7.099-112.829 0-204.614-92.107-204.614-205.345 0-65.624 29.292-124.986 77.704-162.798-84.082-42.245-139.263-127.593-139.263-222.819v-149.105c0-13.81 11.193-25.013 25.002-25.013h716.775c13.81 0 25.004 11.203 25.004 25.013v164.975c-0.001 108.26-56.815 201.192-145.945 246.12zM178.027 137.418c0 89.432 64.633 170.927 153.685 193.8 10.504 2.723 18.060 11.865 18.74 22.68 0.67 10.814-5.689 20.812-15.764 24.818-57.777 22.796-95.102 79.473-95.102 144.319 0 85.659 69.36 155.339 154.607 155.339 8.287 0 16.407-0.72 24.333-2.023-13.558-28.951-21.346-61.161-21.346-95.237 0-73.521 33.346-139.846 88.244-181.12-94.847-45.668-157.369-140.624-157.369-246.705v-139.961h-150.028v124.090zM844.796 13.327h-466.735v139.962c0 100.364 72.743 191.934 172.959 217.686 10.504 2.684 18.071 11.826 18.74 22.641 0.68 10.814-5.688 20.85-15.764 24.818-64.886 25.636-106.81 89.51-106.81 162.68 0 96.521 78.111 175.022 174.117 175.022 95.522 0 173.222-78.501 173.222-175.022 0-70.253-45.989-135.644-114.435-162.68-10.074-3.968-16.445-14.004-15.772-24.818 0.682-10.814 8.238-19.957 18.74-22.641 96.734-24.857 161.738-112.343 161.738-217.686v-139.962z" />
<glyph unicode="&#xe645;" glyph-name="jujia" d="M860.687 551.538h-48.693l4.335 88.817c1.26 25.866-7.645 50.19-25.077 68.492-17.968 18.864-42.799 29.24-69.916 29.24h-420.158c-27.118 0-51.941-10.375-69.917-29.24-17.43-18.302-26.338-42.626-25.077-68.492l4.345-88.817h-48.703c-40.974 0-69.598-34.1-69.598-82.895v-345.615c0-45.855 25.848-79.558 62.272-83.656-0.009-0.291-0.083-0.544-0.083-0.798 0-17.197 13.922-31.090 31.090-31.090h77.724c17.168 0 31.088 13.895 31.088 31.055h435.277c0-17.161 13.913-31.055 31.090-31.055h77.724c17.168 0 31.090 13.895 31.090 31.090 0 0.325-0.092 0.618-0.099 0.98 35.986 4.861 62.279 38.89 62.279 83.476v345.615c-0.001 48.032-29.858 82.894-70.997 82.894zM260.131 85.191h-98.303c-15.772 0-22.955 19.626-22.955 37.837v345.615c0 16.725 6.005 36.278 22.955 36.278h94.194c1.189 0 2.332-0.29 3.492-0.507 13.994-2.394 25.276-18.756 25.276-38.056 0-0.543 0.019-1.088 0.064-1.632l14.539-203.882 12.298-175.654h-51.56zM664.063 85.191h-305.629l-9.795 139.923h325.21l-9.787-139.923zM685.783 392.824c-0.109-0.69-0.299-1.342-0.343-2.067l-8.336-119.026h-331.731l-8.362 119.534c-0.046 0.58-0.209 1.088-0.291 1.669l-5.306 74.332c-0.417 46.109-33.438 83.475-74.197 84.201l-4.452 91.175c-0.635 12.969 3.728 25.068 12.262 34.029 9.088 9.541 21.921 14.783 36.151 14.783h420.158c14.229 0 27.063-5.242 36.15-14.783 8.534-8.961 12.895-21.060 12.262-34.029l-4.444-91.175c-40.766-0.726-73.789-38.091-74.207-84.201l-5.315-74.441zM885.040 123.028c0-18.792-8.363-37.837-24.353-37.837h-149.872l11.31 161.543v0.036l15.544 217.957c0.037 0.543 0.055 1.088 0.055 1.632 0 19.3 11.273 35.661 25.276 38.056 1.162 0.218 2.314 0.507 3.502 0.507h94.185c16.825 0 24.353-18.211 24.353-36.278v-345.615z" />
<glyph unicode="&#xe646;" glyph-name="tongxun" d="M388.254-64.869h0.011c-33.578 0-64.377 7.863-91.566 23.398-29.041 16.59-51.697 42.157-70.884 71.577-2.558 4.605-2.814 5.117-5.396 9.841-28.963 53.004 3.577 136.895 82.809 199.291 43.187 33.998 90.93 53.493 131.005 53.493 29.784 0 53.893-10.922 68.49-30.895 3.125-2.046 8.339-4.716 12.615-4.716 1.227 0 3.78 0 7.604 4.329 0.25 0.259 0.496 0.518 0.746 0.799 22.309 28.934 42.928 60.089 61.329 92.621 16.902 29.903 31.863 60.822 44.478 91.974 1.746 9.847 0.432 14.758-0.69 16.138-0.807 0.992-3.209 1.638-3.231 1.638-21.836 0.516-41.345 10.341-56.867 28.396-29.215 33.997-41.636 93.765-33.212 159.886 12.905 101.37 68.502 177.811 129.324 177.811 0.193 0 1.529-0.021 1.732-0.021 2.888-0.065 5.709-0.345 8.478-0.776 37.336 1.659 71.681-6.118 101.531-23.16 138.168-78.941 141.076-327.055 6.635-564.846-103.761-183.498-262.472-306.778-394.942-306.778zM434.232 242.361c-28.559 0-65.875-15.964-99.841-42.701-59.227-46.624-85.359-107.911-71.994-132.97 2.047-3.837 3.481-6.242 4.605-8.186 13.303-23.024 33.208-43.957 54.688-56.239 19.477-11.14 41.873-16.762 66.563-16.762 113.1 0 257.462 115.63 351.085 281.205 116.591 206.206 122.194 433.486 12.226 496.31-22.062 12.582-48.088 18.141-76.538 16.439-2.089-0.107-4.179 0.020-6.225 0.409-1.142 0.236-2.306 0.43-3.492 0.474-29.914 0-70.095-57.224-79.844-133.817-6.454-50.631 1.961-98.007 21.437-120.673 9.134-10.622 16.88-10.794 19.421-10.859 2.188 0 25.778-0.733 41.635-20.317 12.098-14.932 15.622-35.162 10.471-60.089-0.303-1.464-0.734-2.909-1.292-4.31-13.64-33.933-29.883-67.651-48.284-100.205-20.079-35.505-42.669-69.482-67.155-101.001-1.087-1.402-2.304-2.672-3.62-3.793-11.914-12.13-26.618-18.527-42.745-18.527-25.573 0-45.415 16.546-47.594 18.443-1.885 1.636-3.533 3.553-4.858 5.688-5.933 9.501-18.859 11.483-28.651 11.483zM354.774 412.007c-12.033 0-22.72 8.597-24.971 20.854-4.255 23.204 0.787 46.688 14.187 66.123 13.412 19.413 33.579 32.467 56.792 36.712 13.833 2.521 27.050-6.614 29.581-20.425 2.534-13.81-6.614-27.059-20.423-29.579-9.856-1.81-18.422-7.347-24.109-15.599-5.699-8.229-7.831-18.205-6.033-28.073 2.543-13.81-6.603-27.038-20.414-29.581-1.54-0.279-3.092-0.432-4.61-0.432zM268.883 413.84c-12.033 0-22.718 8.574-24.959 20.832-15.448 84.2 40.484 165.25 124.681 180.677 13.767 2.519 27.050-6.615 29.582-20.423 2.531-13.789-6.615-27.042-20.414-29.561-56.621-10.385-94.237-64.895-83.853-121.514 2.532-13.812-6.615-27.060-20.425-29.582-1.54-0.28-3.090-0.43-4.611-0.43zM170.499 386.090c-12.032 0-22.719 8.572-24.97 20.832-12.841 70.042 2.359 140.884 42.809 199.484 40.44 58.603 101.284 97.944 171.326 110.785 13.778 2.52 27.039-6.614 29.581-20.424 2.532-13.811-6.614-27.039-20.424-29.582-56.674-10.382-105.914-42.227-138.653-89.648-32.726-47.441-45.030-104.773-34.645-161.458 2.532-13.789-6.602-27.039-20.413-29.583-1.551-0.28-3.091-0.407-4.611-0.407z" />
<glyph unicode="&#xe647;" glyph-name="lingshi" d="M780.757 644.38c-51.482 40.362-112.115 68.075-176.207 81.951-7.59 44.355-46.234 78.275-92.743 78.275-46.501 0-85.144-33.919-92.744-78.275-64.102-13.877-124.726-41.589-176.207-81.951-71.782-56.294-114.635-129.51-114.635-195.844 0-43.644 16.732-75.903 45.412-99.781l44.831-360.893c1.581-12.731 12.393-22.258 25.212-22.258h536.262c12.817 0 23.63 9.527 25.211 22.258l44.831 360.893c28.68 23.878 45.414 56.137 45.414 99.781-0.001 66.336-42.856 139.55-114.637 195.844zM476.245 735.109c7.848 11.267 20.833 18.659 35.56 18.659s27.712-7.392 35.559-18.659c4.892-6.997 7.808-15.497 7.808-24.709 0-9.883-3.46-18.935-9.072-26.25-7.927-10.318-20.28-17.118-34.295-17.118s-26.369 6.8-34.295 17.118c-5.614 7.314-9.083 16.367-9.083 26.25 0.001 9.212 2.927 17.711 7.818 24.709zM266.129 16.403l-37.003 297.879c3.479-1.186 7.126-1.344 10.753-0.95 2.115 0.199 4.229 0.397 6.246 1.107l21.892 8.065 26.764-306.102h-28.652zM336.419 16.403l-26.853 307.051 29.965-8.974c5.11-1.542 10.545-1.423 15.577 0.276l24.42 8.422 13.422-306.775h-56.532zM482.284 16.403h-47.815l-13.481 308.158 15.794-10.082c5.209-1.463 10.744-1.225 15.823 0.672l29.679 3.557v-302.306zM589.141 16.403h-61.552v308.237l28.028-9.686c5.041-1.74 10.507-1.858 15.616-0.317l31.369 9.409-13.462-307.644zM630.66 16.403l13.511 308.791 39.563-10.754c5.296-1.423 10.88-1.107 15.98 0.87l14.112 5.575-26.634-304.482h-56.533zM757.48 16.403h-28.651l26.713 305.43 15.97-6.444c5.327-2.135 11.159-2.135 16.653-0.514 0.594 0.157 1.236 0.079 1.83 0.317l4.832 1.816-37.348-300.606zM779.887 366.821l-34.167 13.757c-6.029 2.452-12.76 2.452-18.807 0.079l-37.981-14.943-58.262 15.813c-4.585 1.226-9.429 1.186-13.975-0.196l-52.221-15.657-44.365 15.339c-5.604 1.937-11.722 1.856-17.275-0.237l-40.126-15.141-56.265 15.773c-4.971 1.385-10.248 1.225-15.111-0.435l-44.999-15.497-51.62 15.537c-5.268 1.58-10.912 1.423-16.080-0.475l-36.074-13.243c-43.249 18.54-63.52 45.225-63.52 81.239 0 88.87 106.462 193.868 245.449 226.681 13.974-34.552 47.824-59.023 87.319-59.023 39.503 0 73.342 24.471 87.318 59.062 138.977-32.851 245.448-137.85 245.448-226.72 0.001-36.33-20.664-63.173-64.684-81.714zM715.082 576.146l-46.837 23.404c-11.562 5.811-25.616 1.107-31.407-10.476-5.781-11.544-1.098-25.617 10.466-31.389l46.837-23.443c3.36-1.661 6.928-2.452 10.457-2.452 8.578 0 16.851 4.744 20.962 12.927 5.781 11.584 1.086 25.657-10.479 31.428zM496.673 554.325l-40.698-51.431c-8.025-10.159-6.306-24.866 3.834-32.892 4.299-3.399 9.429-5.059 14.508-5.059 6.919 0 13.757 3.043 18.384 8.895l40.699 51.431c8.025 10.16 6.305 24.866-3.835 32.892-10.15 8.025-24.866 6.285-32.892-3.835zM337.12 600.578l-44.514-27.555c-10.99-6.8-14.39-21.228-7.581-32.219 4.437-7.195 12.098-11.108 19.934-11.108 4.2 0 8.47 1.146 12.314 3.518l44.514 27.593c10.99 6.8 14.379 21.23 7.57 32.219-6.799 10.991-21.248 14.391-32.238 7.551z" />
<glyph unicode="&#xe648;" glyph-name="meirong" d="M385.262 421.518c-5.679 0-11.358 2.172-15.689 6.492-8.673 8.684-8.673 22.716 0 31.401l132.209 132.209c8.662 8.662 22.717 8.662 31.39 0 8.672-8.684 8.672-22.717 0-31.401l-132.209-132.209c-4.331-4.319-10.011-6.492-15.701-6.492zM439.13 269.724c-5.68 0-11.359 2.171-15.69 6.492-8.684 8.685-8.684 22.74 0 31.425l198.839 198.826c8.662 8.661 22.726 8.661 31.389 0 8.672-8.685 8.672-22.717 0-31.401l-198.849-198.85c-4.333-4.32-10.011-6.492-15.69-6.492zM511.62 34.194c-186.303 0-337.857 183.104-337.857 408.166 0 225.039 151.554 408.121 337.857 408.121 186.291 0 337.856-183.082 337.856-408.121 0.001-225.063-151.565-408.166-337.856-408.166zM511.62 791.726c-153.897 0-279.1-156.73-279.1-349.364 0-192.657 125.203-349.409 279.1-349.409s279.1 156.752 279.1 349.409c0 192.634-125.203 349.364-279.1 349.364zM511.62-106.058c-16.239 0-29.378 13.164-29.378 29.367v131.098c0 16.224 13.14 29.365 29.378 29.365 16.226 0 29.377-13.141 29.377-29.365v-131.097c0-16.205-13.151-29.369-29.377-29.369z" />
<glyph unicode="&#xe649;" glyph-name="yundong" d="M808.229 669.951c-79.292 79.335-184.748 122.988-296.916 122.988-112.186 0-217.641-43.651-296.935-122.988-79.315-79.315-123.009-184.748-123.009-296.916 0-112.187 43.695-217.642 123.009-296.957 79.294-79.315 184.748-123.009 296.935-123.009 112.168 0 217.624 43.695 296.916 123.009 79.335 79.314 123.009 184.77 123.009 296.957 0 112.167-43.674 217.6-123.009 296.916zM876.465 373.035c0 2.387-0.297 4.73-0.339 7.116-89.35-1.939-173.457-34.512-240.523-92.715l-86.621 86.621 237.966 237.945c57.713-66.382 89.519-150.149 89.519-238.966zM635.646 209.954l113.551-113.552c-54.049-46.635-119.58-75.863-189.949-85.067 2.557 70.963 27.909 141.244 76.398 198.618zM510.27 412.789l-84.598 84.578c59.758 68.982 90.287 154.476 92.268 240.48 85.366-1.512 165.831-32.148 230.169-87.219l-237.838-237.839zM483.598 736.823c-6.774-0.595-13.507-1.257-20.217-2.152 6.711 0.895 13.421 1.641 20.217 2.152zM463.36 734.672c-2.557-70.942-27.908-141.202-76.396-198.575l-113.552 113.551c-6.903-5.944-13.805-11.909-20.303-18.428 57.501 57.52 130.913 93.099 210.251 103.452zM234.682 610.916l113.572-113.572c-55.817-47.295-125.077-73.988-198.64-76.546 9.161 70.411 38.391 136.006 85.069 190.118zM146.142 373.035c0-2.407 0.298-4.75 0.34-7.136 89.35 1.939 173.457 34.512 240.502 92.715l84.556-84.556-237.859-237.837c6.242-7.308 12.548-14.55 19.429-21.412-68.983 68.962-106.968 160.675-106.968 258.226zM149.614 420.778c-0.873-6.646-1.534-13.357-2.13-20.068 0.511 6.731 1.257 13.421 2.13 20.068zM272.305 97.384l237.966 237.945 86.646-86.644c-59.759-69.004-90.289-154.496-92.248-240.502 2.216-0.041 4.411-0.339 6.646-0.339-88.838-0.001-172.627 31.828-239.009 89.541zM559.248 11.336c-6.732-0.874-13.462-1.619-20.26-2.132 6.775 0.576 13.529 1.257 20.26 2.132zM787.926 135.112l-113.592 113.594c55.818 47.294 125.096 73.987 198.659 76.545-9.161-70.432-38.391-136.027-85.068-190.138zM875.125 345.34c-0.511-6.732-1.258-13.401-2.109-20.047 0.852 6.646 1.513 13.336 2.109 20.047z" />
<glyph unicode="&#xe64a;" glyph-name="lvxing" d="M716.944 571.858h-5.839v81.528h-53.226v-81.528h-292.76v81.528h-53.207v-81.528h-5.879c-67.182 0-121.837-54.635-121.837-121.837v-348.783c0-67.199 54.656-121.857 121.837-121.857h19.171v-7.598c0-19.606 15.9-35.484 35.484-35.484s35.485 15.879 35.485 35.484v7.598h230.672v-7.598c0-19.606 15.88-35.484 35.485-35.484 19.584 0 35.483 15.879 35.483 35.484v7.598h19.131c67.201 0 121.856 54.658 121.856 121.857v348.784c0 67.202-54.656 121.836-121.856 121.836zM783.048 101.239c0-36.435-29.647-66.082-66.104-66.082h-410.912c-36.438 0-66.085 29.647-66.085 66.082v348.783c0 36.437 29.647 66.084 66.085 66.084h410.912c36.456 0 66.104-29.647 66.104-66.084v-348.783zM369.487 435.861c-14.7 0-26.604-11.925-26.604-26.624v-267.213c0-14.699 11.904-26.624 26.604-26.624 14.72 0 26.624 11.925 26.624 26.624v267.213c0 14.699-11.904 26.624-26.624 26.624zM653.51 435.861c-14.7 0-26.603-11.925-26.603-26.624v-267.213c0-14.699 11.903-26.624 26.603-26.624 14.698 0 26.623 11.925 26.623 26.624v267.213c0 14.699-11.926 26.624-26.623 26.624zM365.119 716.986c0 34.242 27.866 62.088 62.109 62.088h168.564c34.241 0 62.088-27.845 62.088-62.088v-28.115h53.226v28.115c0 63.579-51.737 115.314-115.314 115.314h-168.564c-63.6 0-115.315-51.736-115.315-115.314v-28.115h53.207v28.115z" />
<glyph unicode="&#xe64b;" glyph-name="shuma" d="M836.382 661.52h-251.056c-11.032 50.040-55.657 87.635-108.966 87.635h-193.435c-53.492 0-98.28-37.861-109.069-88.186-62.198-5.578-111.113-57.925-111.113-121.533v-397.618c0-67.304 54.759-122.085 122.085-122.085h651.553c67.325 0 122.086 54.78 122.086 122.085v397.617c0 67.305-54.76 122.086-122.086 122.086zM282.926 696.622h193.435c24.029 0 44.665-14.468 53.881-35.103h-301.176c9.215 20.637 29.831 35.103 53.861 35.103zM905.936 141.816c0-38.371-31.201-69.552-69.553-69.552h-651.553c-38.352 0-69.574 31.181-69.574 69.552v397.618c0 38.351 31.221 69.552 69.574 69.552h651.553c38.352 0 69.553-31.201 69.553-69.552v-397.618zM440.338 571.31c-127.213 0-230.684-103.491-230.684-230.684s103.471-230.684 230.684-230.684c127.193 0 230.684 103.49 230.684 230.684s-103.491 230.684-230.684 230.684zM440.338 162.495c-98.239 0-178.151 79.891-178.151 178.131s79.911 178.15 178.151 178.15c98.219 0 178.131-79.911 178.131-178.15 0-98.24-79.912-178.131-178.131-178.131zM768.609 501.103c0 21.17 17.161 38.331 38.331 38.331s38.331-17.161 38.331-38.331v0c0-21.17-17.161-38.331-38.331-38.331s-38.331 17.161-38.331 38.331v0z" />
<glyph unicode="&#xe64c;" glyph-name="xuexi" d="M823.372 278.405v403.191c0 60.487-49.226 109.691-105.854 109.691h-402.926c-64.347 0-113.551-49.204-113.551-109.691v-403.191c0-52.533 30.478-121.355 69.381-156.66l160.069-139.141c21.72-19.708 50.677-30.546 81.582-30.546 29.203 0 56.911 9.853 78.072 27.73l161.187 143.454c28.623 24.176 52.578 65.448 64.286 106.25 1.342 2.927 2.234 5.965 2.548 9.005 3.307 13.719 5.206 27.262 5.206 39.908zM765.923 681.595v-394.274l-98.183 54.543v391.974h45.941c28.803 0 52.242-23.438 52.242-52.242zM416.041 733.837h194.272v-382.767l-98-75.147-96.272 58.433v399.481zM310.755 733.837h47.815v-396.33l-100.079-53.382v397.47c0 28.804 23.439 52.242 52.265 52.242zM714.262 167.127l-134.341-112.219c-18.948 14.949-42.813 23.954-68.822 23.954-28.332 0-54.097-10.68-73.737-28.132l-128.35 113.583c-15.194 13.809-29.182 36.891-38.634 60.89l114.246 61.069 112.204-68.934c9.743-6.435 22.435-6.324 32.066 0.291l101.329 77.447c1.81-0.58 3.664-0.983 5.609-1.207l118.696-65.939c-9.652-24.113-24.31-47.304-40.265-60.803z" />
<glyph unicode="&#xe64d;" glyph-name="yiliao" d="M755.871 653.115h-47.153v34.556c0 54.628-44.721 99.089-99.67 99.089h-194.861c-54.948 0-99.651-44.723-99.651-99.692v-33.953h-47.153c-76.848 0-139.351-62.523-139.351-139.37v-395.249c0-76.827 62.503-139.35 139.351-139.35h488.487c76.848 0 139.352 62.523 139.352 139.35v395.249c0 76.848-62.504 139.37-139.352 139.37zM373.141 687.069c0 22.662 18.424 41.066 41.046 41.066h194.861c23.023 0 41.066-17.759 41.066-40.464v-34.556h-276.973v33.953zM836.616 118.497c0-44.52-36.223-80.743-80.745-80.743h-488.487c-44.522 0-80.745 36.223-80.745 80.743v395.248c0 44.521 36.223 80.745 80.745 80.745h488.487c44.522 0 80.745-36.224 80.745-80.745v-395.248zM637.879 381.949h-60.433v60.453c0 17.721-14.506 32.226-32.227 32.226h-67.183c-17.72 0-32.226-14.504-32.226-32.226v-60.453h-60.432c-17.74 0-32.246-14.505-32.246-32.245v-67.143c0-17.74 14.505-32.246 32.246-32.246h60.432v-60.454c0-17.719 14.506-32.225 32.226-32.225h67.183c17.721 0 32.227 14.506 32.227 32.225v60.454h60.433c17.74 0 32.264 14.506 32.264 32.246v67.143c0 17.74-14.525 32.245-32.264 32.245z" />
</font>
</defs>
</svg>
